<svg width="288" height="138" viewBox="0 0 288 138" fill="none" xmlns="http://www.w3.org/2000/svg">
    <rect width="288" height="138" fill="#F65121"/>
    <path d="M42.9372 17.8924C43.1794 17.9402 43.4701 17.7968 43.5186 17.5578L44.0999 15.4542C44.1484 15.2151 44.003 14.9283 43.7608 14.8805L41.6291 14.3068C41.4838 14.259 41.3869 14.3068 41.2416 14.3546C41.1447 14.4024 41.0478 14.5458 40.9993 14.6414L40.4664 16.5538L39.4006 17.1275L39.7881 15.6932C39.8366 15.4542 39.6913 15.1673 39.449 15.1195C39.2068 15.0717 38.9161 15.2151 38.8677 15.4542L38.2378 17.7968L37.2205 18.3705L37.8503 16.0279C37.8987 15.7888 37.7534 15.502 37.5111 15.4542C37.2689 15.4064 36.9782 15.5498 36.9298 15.7888L36.0577 19.0877L35.0403 19.6614L34.0714 18.7052V17.8924L36.4938 15.502C36.6875 15.3108 36.6875 15.0239 36.4938 14.8327C36.3 14.6414 36.0093 14.6414 35.8155 14.8327L34.0714 16.5538V15.4064L35.8155 13.6853C36.0093 13.494 36.0093 13.2072 35.8155 13.0159C35.6217 12.8247 35.331 12.8247 35.1372 13.0159L34.0714 14.0677V12.8247L35.5248 11.3904C35.6217 11.2948 35.6702 11.1992 35.6702 11.0558C35.6702 10.9124 35.6217 10.8167 35.5248 10.7211L33.9261 9.14343C33.7323 8.95219 33.4416 8.95219 33.2478 9.14343L31.649 10.7211C31.6006 10.8167 31.5522 10.9602 31.5522 11.0558C31.5522 11.1992 31.6006 11.2948 31.6975 11.3904L33.1509 12.8247V14.0199L32.0851 12.9681C31.8913 12.7769 31.6006 12.7769 31.4068 12.9681C31.213 13.1594 31.213 13.4462 31.4068 13.6375L33.1509 15.3586V16.506L31.4068 14.7849C31.213 14.5936 30.9223 14.5936 30.7286 14.7849C30.5348 14.9761 30.5348 15.2629 30.7286 15.4542L33.1509 17.8446V18.5618L32.0851 19.5657L31.0677 18.992L30.1956 15.741C30.1472 15.502 29.8565 15.3108 29.6143 15.4064C29.372 15.4542 29.1783 15.741 29.2751 15.9801L29.905 18.3227L28.8876 17.749L28.2093 15.3586C28.1609 15.1195 27.8702 14.9283 27.6279 15.0239C27.3857 15.0717 27.1919 15.3586 27.2888 15.5976L27.6764 17.0319L26.6106 16.4582L26.0776 14.5458C26.0292 14.4024 25.9807 14.3068 25.8354 14.259C25.7385 14.2112 25.5932 14.1633 25.4478 14.2112L23.3646 14.7371C23.1224 14.7849 22.9286 15.0717 23.0255 15.3108L23.6068 17.4143C23.6553 17.6534 23.946 17.8446 24.1882 17.749L26.1261 17.2231L27.1919 17.7968L25.7385 18.1793C25.4963 18.2271 25.3025 18.5139 25.3994 18.753C25.4478 18.992 25.7385 19.1355 25.9807 19.0877L28.3547 18.4661L29.372 19.0398L26.9981 19.6614C26.7559 19.7092 26.5621 19.996 26.659 20.2351C26.7075 20.4741 26.9981 20.6175 27.2404 20.5697L30.5348 19.7092L31.3584 20.1873L30.9708 20.5697C30.8739 20.6653 30.8255 20.761 30.8255 20.9044C30.8255 21.0478 30.8739 21.1434 30.9708 21.239L31.3099 21.5737L30.5348 22.004L27.2404 21.239C26.9981 21.1912 26.7075 21.3347 26.659 21.5737C26.6106 21.8127 26.7559 22.0996 26.9981 22.1474L29.372 22.7689L28.3547 23.3426L25.9807 22.7211C25.7385 22.6733 25.4478 22.8167 25.3994 23.0558C25.3509 23.2948 25.4963 23.5817 25.7385 23.6295L27.1919 24.012L26.1261 24.5857L24.1882 24.0598C23.946 24.012 23.6553 24.1554 23.6068 24.3944L23.0255 26.498C22.977 26.6414 23.0255 26.7371 23.0739 26.8805C23.1224 26.9761 23.2677 27.0717 23.3646 27.1195L25.4963 27.6932C25.7385 27.741 26.0292 27.5976 26.0776 27.3586L26.6106 25.4462L27.6764 24.8725L27.2888 26.3068C27.2404 26.5458 27.3857 26.8327 27.6279 26.8805C27.8702 26.9283 28.1609 26.7849 28.2093 26.5458L28.8391 24.2032L29.8565 23.6295L29.2267 25.9721C29.1783 26.2112 29.3236 26.498 29.5658 26.5458C29.8081 26.5936 30.0987 26.4502 30.1472 26.2112L31.0192 22.9602L32.0366 22.3865L33.0056 23.3426V24.1554L30.5832 26.5458C30.3894 26.7371 30.3894 27.0239 30.5832 27.2151C30.777 27.4064 31.0677 27.4064 31.2615 27.2151L33.0056 25.494V26.6414L31.2615 28.3626C31.0677 28.5538 31.0677 28.8406 31.2615 29.0319C31.4553 29.2231 31.7459 29.2231 31.9397 29.0319L33.0056 27.9801V29.1753L31.5522 30.6096C31.4553 30.7052 31.4068 30.8008 31.4068 30.9442C31.4068 31.0877 31.4553 31.1833 31.5522 31.2789L33.1509 32.8566C33.2478 32.9522 33.3931 33 33.49 33C33.6354 33 33.7323 32.9522 33.8292 32.8566L35.4279 31.2789C35.6217 31.0877 35.6217 30.8008 35.4279 30.6096L33.9745 29.1753V27.9801L35.0403 29.0319C35.2341 29.2231 35.5248 29.2231 35.7186 29.0319C35.9124 28.8406 35.9124 28.5538 35.7186 28.3626L33.9745 26.6414V25.494L35.7186 27.2151C35.9124 27.4064 36.2031 27.4064 36.3969 27.2151C36.5906 27.0239 36.5906 26.7371 36.3969 26.5458L33.9745 24.1554V23.3904L34.9919 22.3865L36.0093 22.9602L36.8813 26.2112C36.9298 26.4024 37.1236 26.5458 37.3658 26.5458C37.7049 26.5458 37.8987 26.259 37.8503 25.9243L37.2205 23.5817L38.2378 24.1554L38.8677 26.498C38.9161 26.6892 39.1099 26.8327 39.3521 26.8327C39.6913 26.8327 39.885 26.5458 39.8366 26.2112L39.449 24.7769L40.5149 25.3506L41.0478 27.2629C41.0962 27.502 41.3869 27.6932 41.6291 27.5976L43.7608 27.0239C43.9061 26.9761 44.003 26.9283 44.0515 26.7849C44.0999 26.6892 44.1484 26.5458 44.0999 26.4024L43.5186 24.2988C43.4701 24.0598 43.1794 23.8685 42.9372 23.9641L40.9993 24.49L39.9335 23.9163L41.3869 23.5339C41.6291 23.4861 41.8229 23.1992 41.726 22.9602C41.6776 22.7211 41.3869 22.5299 41.1447 22.6255L38.7223 23.247L37.7049 22.6733L40.0788 22.0518C40.3211 22.004 40.5149 21.7171 40.418 21.4781C40.3695 21.239 40.0788 21.0478 39.8366 21.1434L36.5422 22.004L35.7186 21.5259L36.1062 21.1434C36.3 20.9522 36.3 20.6653 36.1062 20.4741L35.8155 20.1873L36.5906 19.757L39.885 20.6175C40.1273 20.6653 40.418 20.5219 40.4664 20.2829C40.5149 20.0438 40.3695 19.757 40.1273 19.7092L37.7534 19.0877L38.7708 18.5139L41.1447 19.1355C41.3869 19.1833 41.6776 19.0398 41.726 18.8008C41.7745 18.5618 41.6291 18.2749 41.3869 18.2271L39.9335 17.8446L40.9993 17.2709L42.9372 17.8924ZM41.8229 15.3108L43.0341 15.6454L42.695 16.8406L41.4838 16.506L41.8229 15.3108ZM24.4304 16.745L24.0913 15.5498L25.3025 15.2151L25.6416 16.4104L24.4304 16.745ZM25.254 26.6892L24.0429 26.3546L24.382 25.1594L25.5932 25.494L25.254 26.6892ZM42.6465 25.255L42.9857 26.4502L41.7745 26.7849L41.4353 25.5896L42.6465 25.255ZM33.5385 22.4821L32.0366 21L33.5385 19.5179C33.7323 19.7092 34.895 20.8566 35.0403 21L33.5385 22.4821ZM33.5869 10.1952L34.459 11.0558L33.5869 11.9163L32.7149 11.0558L33.5869 10.1952ZM33.49 31.8048L32.618 30.9442L33.49 30.0837L34.3621 30.9442L33.49 31.8048Z"
          fill="white" fill-opacity="0.6"/>
    <path d="M276.708 101.328L274.932 100.32L276.036 100.128C276.276 100.08 276.468 99.84 276.42 99.552C276.372 99.312 276.132 99.12 275.844 99.168L273.588 99.552L271.476 98.304L273.636 97.92C273.78 97.872 273.876 97.824 273.972 97.68L274.308 97.104C274.452 96.864 274.356 96.576 274.116 96.432C273.876 96.288 273.588 96.384 273.444 96.624L273.252 97.008L270.18 97.536L269.172 96.96V94.896L270.18 94.32L273.252 94.848L273.492 95.232C273.636 95.472 273.924 95.52 274.164 95.424C274.404 95.28 274.452 94.992 274.356 94.752L274.02 94.176C273.972 94.032 273.828 93.984 273.684 93.936L271.524 93.552L273.636 92.304L275.892 92.688C276.18 92.736 276.42 92.544 276.468 92.304C276.516 92.064 276.324 91.776 276.084 91.728L274.932 91.68L276.708 90.672C276.948 90.528 276.996 90.24 276.9 90C276.756 89.76 276.468 89.712 276.228 89.808L274.452 90.816L274.836 89.76C274.932 89.52 274.788 89.232 274.548 89.136C274.308 89.04 274.02 89.184 273.924 89.424L273.156 91.536L271.044 92.784L271.812 90.72C271.86 90.576 271.86 90.432 271.764 90.336L271.428 89.76C271.284 89.52 270.996 89.472 270.756 89.568C270.516 89.712 270.468 90 270.564 90.24L270.756 90.624L269.7 93.552L268.692 94.128L266.964 93.12V91.968L268.98 89.568H269.412C269.7 89.568 269.892 89.376 269.892 89.088C269.892 88.8 269.7 88.608 269.412 88.608H268.74C268.596 88.608 268.452 88.656 268.356 88.8L266.964 90.48V88.032L268.404 86.304C268.596 86.112 268.548 85.776 268.356 85.632C268.164 85.44 267.876 85.44 267.684 85.632L266.964 86.496V84.48C266.964 84.192 266.772 84 266.484 84C266.196 84 266.004 84.192 266.004 84.48V86.496L265.284 85.632C265.092 85.44 264.804 85.392 264.612 85.584C264.42 85.776 264.372 86.064 264.564 86.256L266.004 87.984V90.432L264.612 88.8C264.516 88.704 264.372 88.608 264.228 88.608H263.604C263.316 88.608 263.124 88.8 263.124 89.088C263.124 89.376 263.316 89.568 263.604 89.568H264.036L266.052 91.968V93.12L264.276 94.176L263.268 93.6L262.164 90.624L262.404 90.24C262.548 90 262.452 89.712 262.212 89.568C261.972 89.424 261.684 89.52 261.54 89.76L261.204 90.336C261.156 90.48 261.108 90.624 261.156 90.72L261.924 92.784L259.812 91.536L259.044 89.376C258.948 89.136 258.66 88.992 258.42 89.088C258.18 89.184 258.036 89.472 258.132 89.712L258.516 90.768L256.74 89.76C256.5 89.616 256.212 89.712 256.068 89.952C255.924 90.192 256.02 90.48 256.26 90.624L258.036 91.68L256.932 91.872C256.692 91.92 256.5 92.16 256.548 92.448C256.596 92.688 256.836 92.88 257.124 92.832L259.332 92.448L261.444 93.696L259.284 94.032C259.14 94.08 259.044 94.128 258.948 94.272L258.612 94.848C258.516 95.04 258.564 95.328 258.804 95.472C259.044 95.616 259.332 95.52 259.476 95.28L259.668 94.896L262.74 94.368L263.748 94.944V97.008L262.74 97.584L259.668 97.056L259.428 96.672C259.284 96.432 258.996 96.384 258.756 96.48C258.516 96.624 258.468 96.912 258.564 97.152L258.9 97.728C258.948 97.872 259.092 97.92 259.236 97.968L261.396 98.352L259.284 99.6L257.028 99.216C256.788 99.168 256.5 99.36 256.452 99.6C256.404 99.84 256.596 100.128 256.836 100.176L258.036 100.32L256.26 101.328C256.02 101.472 255.972 101.76 256.068 102C256.212 102.24 256.5 102.288 256.74 102.192L258.516 101.184L258.132 102.24C258.036 102.48 258.18 102.768 258.42 102.864C258.66 102.96 258.948 102.816 259.044 102.576L259.812 100.464L261.924 99.216L261.156 101.28C261.108 101.424 261.108 101.568 261.204 101.664L261.54 102.24C261.684 102.48 261.972 102.528 262.212 102.432C262.452 102.288 262.5 102 262.404 101.76L262.164 101.376L263.22 98.448L264.228 97.872L266.004 98.88V100.032L263.988 102.432H263.556C263.268 102.432 263.076 102.624 263.076 102.912C263.076 103.2 263.268 103.392 263.556 103.392H264.228C264.372 103.392 264.516 103.344 264.612 103.2L266.004 101.52V103.968L264.564 105.696C264.372 105.888 264.42 106.224 264.612 106.368C264.804 106.56 265.14 106.512 265.284 106.32L266.004 105.456V107.52C266.004 107.808 266.196 108 266.484 108C266.772 108 266.964 107.808 266.964 107.52V105.504L267.684 106.368C267.876 106.56 268.164 106.608 268.356 106.416C268.548 106.224 268.596 105.936 268.404 105.744L266.964 104.016V101.568L268.356 103.248C268.452 103.344 268.596 103.44 268.74 103.44H269.364C269.652 103.44 269.844 103.248 269.844 102.96C269.844 102.672 269.652 102.48 269.364 102.48H268.932L266.916 100.08V98.88L268.692 97.824L269.7 98.4L270.756 101.328L270.612 101.76C270.468 102 270.564 102.288 270.804 102.432C271.044 102.576 271.332 102.48 271.476 102.24L271.812 101.664C271.86 101.52 271.908 101.376 271.86 101.28L271.092 99.216L273.204 100.464L273.972 102.576C274.068 102.816 274.356 102.96 274.596 102.864C274.836 102.768 274.98 102.48 274.884 102.24L274.5 101.184L276.276 102.192C276.516 102.336 276.804 102.24 276.948 102C276.996 101.76 276.948 101.472 276.708 101.328ZM268.26 97.056L266.484 98.064L264.708 97.008V94.944L266.484 93.888L268.26 94.944V97.056Z"
          fill="white" fill-opacity="0.6"/>
    <path d="M28.7077 80.328L27.2197 79.464L27.9397 79.272C28.1797 79.224 28.3237 78.936 28.2757 78.696C28.2277 78.456 27.9397 78.312 27.6997 78.36L26.4037 78.744L26.0677 76.44C26.0197 76.248 25.8757 76.104 25.6837 76.056L20.7877 75L25.6837 73.944C25.8757 73.896 26.0197 73.752 26.0677 73.56L26.4037 71.304L27.6997 71.688C27.9397 71.736 28.2277 71.592 28.2757 71.352C28.3237 71.112 28.1797 70.824 27.9397 70.776L27.2197 70.584L28.7077 69.72C28.9477 69.576 28.9957 69.288 28.8997 69.048C28.7557 68.808 28.4677 68.76 28.2277 68.856L26.7397 69.72L26.9317 69C26.9797 68.76 26.8357 68.472 26.5957 68.424C26.3557 68.376 26.0677 68.52 26.0197 68.76L25.6837 70.008L23.5237 69.192C23.3317 69.096 23.1397 69.192 22.9957 69.336L19.6357 73.08L21.1717 68.28C21.2197 68.088 21.1717 67.896 21.0277 67.752L19.2517 66.312L20.2117 65.352C20.4037 65.16 20.4037 64.872 20.2117 64.68C20.0197 64.488 19.7317 64.488 19.5397 64.68L18.9637 65.16V63.48C18.9637 63.192 18.7717 63 18.4837 63C18.1957 63 18.0037 63.192 18.0037 63.48V65.16L17.4757 64.632C17.2837 64.44 16.9957 64.44 16.8037 64.632C16.6117 64.824 16.6117 65.112 16.8037 65.304L17.7637 66.264L15.9877 67.704C15.8437 67.848 15.7477 68.04 15.8437 68.232L17.3797 73.032L14.0197 69.288C13.8757 69.144 13.6837 69.096 13.4917 69.144L11.2837 70.008L10.9477 68.712C10.8997 68.472 10.6117 68.28 10.3717 68.376C10.1317 68.424 9.93966 68.712 10.0357 68.952L10.2277 69.672L8.73966 68.808C8.49966 68.664 8.21166 68.76 8.06766 69C7.92366 69.24 8.01966 69.528 8.25966 69.672L9.74766 70.536L9.02766 70.728C8.78766 70.776 8.64366 71.064 8.69166 71.304C8.73966 71.544 9.02766 71.688 9.26766 71.64L10.5637 71.256L10.8997 73.512C10.9477 73.704 11.0917 73.848 11.2837 73.896L16.2277 75L11.2837 76.056C11.0917 76.104 10.9477 76.248 10.8997 76.44L10.5637 78.696L9.26766 78.36C9.02766 78.312 8.73966 78.456 8.69166 78.696C8.64366 78.936 8.78766 79.224 9.02766 79.272L9.74766 79.464L8.25966 80.328C8.01966 80.472 7.97166 80.76 8.06766 81C8.21166 81.24 8.49966 81.288 8.73966 81.192L10.2277 80.328L10.0357 81.048C9.98766 81.288 10.1317 81.576 10.3717 81.624C10.6117 81.672 10.8997 81.528 10.9477 81.288L11.2837 79.992L13.4437 80.808C13.6357 80.904 13.8277 80.808 13.9717 80.664L17.3317 76.92L15.7957 81.72C15.7477 81.912 15.7957 82.104 15.9397 82.248L17.7157 83.688L16.7557 84.648C16.5637 84.84 16.5637 85.128 16.7557 85.32C16.9477 85.512 17.2357 85.512 17.4277 85.32L17.9557 84.792V86.52C17.9557 86.808 18.1477 87 18.4357 87C18.7237 87 18.9157 86.808 18.9157 86.52V84.84L19.4437 85.368C19.6357 85.56 19.9237 85.56 20.1157 85.368C20.3077 85.176 20.3077 84.888 20.1157 84.696L19.1557 83.736L20.9317 82.296C21.0757 82.152 21.1717 81.96 21.0757 81.768L19.5397 77.016L22.8997 80.712C23.0437 80.856 23.2357 80.904 23.4277 80.856L25.5877 80.04L25.9237 81.336C25.9717 81.576 26.2597 81.768 26.4997 81.672C26.7397 81.624 26.9317 81.336 26.8357 81.096L26.6437 80.376L28.1317 81.24C28.3717 81.384 28.6597 81.288 28.8037 81.048C28.9957 80.76 28.9477 80.472 28.7077 80.328ZM18.3877 76.344C17.2837 76.2 16.8517 74.808 17.6677 74.088C18.1477 73.608 18.9157 73.656 19.3957 74.04C20.3077 74.856 19.6837 76.488 18.3877 76.344ZM23.4757 70.2L25.4437 70.968L25.1557 73.08L20.5477 74.04C20.5477 73.992 20.3557 73.704 20.3077 73.656L23.4757 70.2ZM18.4837 66.936L20.1637 68.28L18.7237 72.792C18.7237 72.792 18.3397 72.792 18.2917 72.792L16.8517 68.28L18.4837 66.936ZM11.4757 70.968L13.4437 70.2L16.6597 73.752C16.6597 73.8 16.4677 74.088 16.4677 74.088L11.8117 73.08L11.4757 70.968ZM13.4917 79.8L11.5237 79.032L11.8597 76.92L16.5157 75.912C16.5157 75.96 16.7077 76.248 16.7077 76.296L13.4917 79.8ZM18.4837 83.064L16.8037 81.72L18.2437 77.256C18.3397 77.256 18.6277 77.256 18.7237 77.256L20.1637 81.72L18.4837 83.064ZM23.4757 79.8L20.3557 76.344C20.4037 76.296 20.5957 75.96 20.5957 75.912L25.1557 76.872L25.4917 78.984L23.4757 79.8Z"
          fill="white" fill-opacity="0.6"/>
</svg>