<svg width="704" height="132" viewBox="0 0 704 132" fill="none" xmlns="http://www.w3.org/2000/svg">
    <rect width="704" height="132" fill="#F65121"/>
    <path d="M587.937 23.354C588.179 23.3955 588.47 23.2709 588.519 23.0633L589.1 21.2365C589.148 21.0289 589.003 20.7798 588.761 20.7383L586.629 20.2401C586.484 20.1986 586.387 20.2401 586.242 20.2816C586.145 20.3231 586.048 20.4477 585.999 20.5307L585.466 22.1915L584.401 22.6897L584.788 21.4441C584.837 21.2365 584.691 20.9874 584.449 20.9459C584.207 20.9044 583.916 21.0289 583.868 21.2365L583.238 23.2709L582.22 23.7691L582.85 21.7348C582.899 21.5272 582.753 21.2781 582.511 21.2365C582.269 21.195 581.978 21.3196 581.93 21.5272L581.058 24.3919L580.04 24.8901L579.071 24.0598V23.354L581.494 21.2781C581.688 21.112 581.688 20.8629 581.494 20.6968C581.3 20.5307 581.009 20.5307 580.815 20.6968L579.071 22.1915V21.195L580.815 19.7004C581.009 19.5343 581.009 19.2852 580.815 19.1191C580.622 18.953 580.331 18.953 580.137 19.1191L579.071 20.0325V18.953L580.525 17.7075C580.622 17.6245 580.67 17.5414 580.67 17.4169C580.67 17.2923 580.622 17.2093 580.525 17.1262L578.926 15.7561C578.732 15.5901 578.442 15.5901 578.248 15.7561L576.649 17.1262C576.601 17.2093 576.552 17.3338 576.552 17.4169C576.552 17.5414 576.601 17.6245 576.697 17.7075L578.151 18.953V19.991L577.085 19.0776C576.891 18.9115 576.601 18.9115 576.407 19.0776C576.213 19.2437 576.213 19.4928 576.407 19.6589L578.151 21.1535V22.1499L576.407 20.6553C576.213 20.4892 575.922 20.4892 575.729 20.6553C575.535 20.8214 575.535 21.0705 575.729 21.2365L578.151 23.3124V23.9352L577.085 24.8071L576.068 24.3089L575.196 21.4856C575.147 21.2781 574.857 21.112 574.614 21.195C574.372 21.2365 574.178 21.4856 574.275 21.6932L574.905 23.7276L573.888 23.2294L573.209 21.1535C573.161 20.9459 572.87 20.7798 572.628 20.8629C572.386 20.9044 572.192 21.1535 572.289 21.3611L572.676 22.6066L571.611 22.1084L571.078 20.4477C571.029 20.3231 570.981 20.2401 570.835 20.1986C570.739 20.1571 570.593 20.1156 570.448 20.1571L568.365 20.6138C568.122 20.6553 567.929 20.9044 568.025 21.112L568.607 22.9388C568.655 23.1464 568.946 23.3124 569.188 23.2294L571.126 22.7727L572.192 23.2709L570.739 23.6031C570.496 23.6446 570.302 23.8937 570.399 24.1013C570.448 24.3089 570.739 24.4334 570.981 24.3919L573.355 23.8522L574.372 24.3504L571.998 24.8901C571.756 24.9317 571.562 25.1808 571.659 25.3884C571.707 25.5959 571.998 25.7205 572.24 25.679L575.535 24.9317L576.358 25.3468L575.971 25.679C575.874 25.762 575.825 25.8451 575.825 25.9696C575.825 26.0942 575.874 26.1772 575.971 26.2602L576.31 26.5509L575.535 26.9245L572.24 26.2602C571.998 26.2187 571.707 26.3433 571.659 26.5509C571.611 26.7585 571.756 27.0076 571.998 27.0491L574.372 27.5888L573.355 28.087L570.981 27.5473C570.739 27.5058 570.448 27.6303 570.399 27.8379C570.351 28.0455 570.496 28.2946 570.739 28.3361L572.192 28.6683L571.126 29.1665L569.188 28.7098C568.946 28.6683 568.655 28.7928 568.607 29.0004L568.025 30.8272C567.977 30.9518 568.025 31.0348 568.074 31.1594C568.122 31.2424 568.268 31.3254 568.365 31.367L570.496 31.8652C570.739 31.9067 571.029 31.7821 571.078 31.5746L571.611 29.9138L572.676 29.4156L572.289 30.6612C572.24 30.8687 572.386 31.1179 572.628 31.1594C572.87 31.2009 573.161 31.0763 573.209 30.8687L573.839 28.8344L574.857 28.3361L574.227 30.3705C574.178 30.5781 574.324 30.8272 574.566 30.8687C574.808 30.9103 575.099 30.7857 575.147 30.5781L576.019 27.7549L577.037 27.2567L578.006 28.087V28.7928L575.583 30.8687C575.389 31.0348 575.389 31.2839 575.583 31.45C575.777 31.6161 576.068 31.6161 576.261 31.45L578.006 29.9553V30.9518L576.261 32.4464C576.068 32.6125 576.068 32.8616 576.261 33.0277C576.455 33.1938 576.746 33.1938 576.94 33.0277L578.006 32.1143V33.1522L576.552 34.3978C576.455 34.4808 576.407 34.5639 576.407 34.6884C576.407 34.813 576.455 34.896 576.552 34.979L578.151 36.3491C578.248 36.4322 578.393 36.4737 578.49 36.4737C578.635 36.4737 578.732 36.4322 578.829 36.3491L580.428 34.979C580.622 34.813 580.622 34.5639 580.428 34.3978L578.975 33.1522V32.1143L580.04 33.0277C580.234 33.1938 580.525 33.1938 580.719 33.0277C580.912 32.8616 580.912 32.6125 580.719 32.4464L578.975 30.9518V29.9553L580.719 31.45C580.912 31.6161 581.203 31.6161 581.397 31.45C581.591 31.2839 581.591 31.0348 581.397 30.8687L578.975 28.7928V28.1286L579.992 27.2567L581.009 27.7549L581.881 30.5781C581.93 30.7442 582.124 30.8687 582.366 30.8687C582.705 30.8687 582.899 30.6196 582.85 30.329L582.22 28.2946L583.238 28.7928L583.868 30.8272C583.916 30.9933 584.11 31.1179 584.352 31.1179C584.691 31.1179 584.885 30.8687 584.837 30.5781L584.449 29.3326L585.515 29.8308L586.048 31.4915C586.096 31.6991 586.387 31.8652 586.629 31.7821L588.761 31.2839C588.906 31.2424 589.003 31.2009 589.051 31.0763C589.1 30.9933 589.148 30.8687 589.1 30.7442L588.519 28.9174C588.47 28.7098 588.179 28.5437 587.937 28.6268L585.999 29.0835L584.933 28.5852L586.387 28.2531C586.629 28.2116 586.823 27.9625 586.726 27.7549C586.678 27.5473 586.387 27.3812 586.145 27.4643L583.722 28.004L582.705 27.5058L585.079 26.966C585.321 26.9245 585.515 26.6754 585.418 26.4678C585.37 26.2602 585.079 26.0942 584.837 26.1772L581.542 26.9245L580.719 26.5093L581.106 26.1772C581.3 26.0111 581.3 25.762 581.106 25.5959L580.815 25.3468L581.591 24.9732L584.885 25.7205C585.127 25.762 585.418 25.6375 585.466 25.4299C585.515 25.2223 585.37 24.9732 585.127 24.9317L582.753 24.3919L583.771 23.8937L586.145 24.4334C586.387 24.475 586.678 24.3504 586.726 24.1428C586.774 23.9352 586.629 23.6861 586.387 23.6446L584.933 23.3124L585.999 22.8142L587.937 23.354ZM586.823 21.112L588.034 21.4026L587.695 22.4406L586.484 22.1499L586.823 21.112ZM569.43 22.3575L569.091 21.3196L570.302 21.0289L570.642 22.0669L569.43 22.3575ZM570.254 30.9933L569.043 30.7027L569.382 29.6647L570.593 29.9553L570.254 30.9933ZM587.647 29.7478L587.986 30.7857L586.774 31.0763L586.435 30.0384L587.647 29.7478ZM578.538 27.3397L577.037 26.0526L578.538 24.7656C578.732 24.9317 579.895 25.9281 580.04 26.0526L578.538 27.3397ZM578.587 16.6695L579.459 17.4169L578.587 18.1642L577.715 17.4169L578.587 16.6695ZM578.49 35.4357L577.618 34.6884L578.49 33.9411L579.362 34.6884L578.49 35.4357Z" fill="white" fill-opacity="0.6"/>
    <path d="M544.708 111.443L543.22 110.692L543.94 110.526C544.18 110.484 544.324 110.234 544.276 110.026C544.228 109.817 543.94 109.692 543.7 109.734L542.404 110.067L542.068 108.066C542.02 107.9 541.876 107.775 541.684 107.733L536.788 106.816L541.684 105.899C541.876 105.857 542.02 105.732 542.068 105.565L542.404 103.606L543.7 103.94C543.94 103.981 544.228 103.856 544.276 103.648C544.324 103.439 544.18 103.189 543.94 103.148L543.22 102.981L544.708 102.231C544.948 102.106 544.996 101.855 544.9 101.647C544.756 101.439 544.468 101.397 544.228 101.48L542.74 102.231L542.932 101.605C542.98 101.397 542.836 101.147 542.596 101.105C542.356 101.063 542.068 101.188 542.02 101.397L541.684 102.481L539.524 101.772C539.332 101.689 539.14 101.772 538.996 101.897L535.636 105.148L537.172 100.98C537.22 100.813 537.172 100.647 537.028 100.522L535.252 99.271L536.212 98.4373C536.404 98.2706 536.404 98.0205 536.212 97.8537C536.02 97.687 535.732 97.687 535.54 97.8537L534.964 98.2706V96.8116C534.964 96.5615 534.772 96.3948 534.484 96.3948C534.196 96.3948 534.004 96.5615 534.004 96.8116V98.2706L533.476 97.812C533.284 97.6453 532.996 97.6453 532.804 97.812C532.612 97.9788 532.612 98.2289 532.804 98.3956L533.764 99.2293L531.988 100.48C531.844 100.605 531.748 100.772 531.844 100.938L533.38 105.107L530.02 101.855C529.876 101.73 529.684 101.689 529.492 101.73L527.284 102.481L526.948 101.355C526.9 101.147 526.612 100.98 526.372 101.063C526.132 101.105 525.94 101.355 526.036 101.564L526.228 102.189L524.74 101.439C524.5 101.314 524.212 101.397 524.068 101.605C523.924 101.814 524.02 102.064 524.26 102.189L525.748 102.939L525.028 103.106C524.788 103.148 524.644 103.398 524.692 103.606C524.74 103.815 525.028 103.94 525.268 103.898L526.564 103.564L526.9 105.524C526.948 105.69 527.092 105.815 527.284 105.857L532.228 106.816L527.284 107.733C527.092 107.775 526.948 107.9 526.9 108.066L526.564 110.026L525.268 109.734C525.028 109.692 524.74 109.817 524.692 110.026C524.644 110.234 524.788 110.484 525.028 110.526L525.748 110.692L524.26 111.443C524.02 111.568 523.972 111.818 524.068 112.026C524.212 112.235 524.5 112.276 524.74 112.193L526.228 111.443L526.036 112.068C525.988 112.276 526.132 112.527 526.372 112.568C526.612 112.61 526.9 112.485 526.948 112.276L527.284 111.151L529.444 111.86C529.636 111.943 529.828 111.86 529.972 111.735L533.332 108.483L531.796 112.652C531.748 112.818 531.796 112.985 531.94 113.11L533.716 114.361L532.756 115.194C532.564 115.361 532.564 115.611 532.756 115.778C532.948 115.945 533.236 115.945 533.428 115.778L533.956 115.319V116.82C533.956 117.07 534.148 117.237 534.436 117.237C534.724 117.237 534.916 117.07 534.916 116.82V115.361L535.444 115.82C535.636 115.986 535.924 115.986 536.116 115.82C536.308 115.653 536.308 115.403 536.116 115.236L535.156 114.402L536.932 113.152C537.076 113.027 537.172 112.86 537.076 112.693L535.54 108.567L538.9 111.776C539.044 111.901 539.236 111.943 539.428 111.901L541.588 111.193L541.924 112.318C541.972 112.527 542.26 112.693 542.5 112.61C542.74 112.568 542.932 112.318 542.836 112.11L542.644 111.484L544.132 112.235C544.372 112.36 544.66 112.276 544.804 112.068C544.996 111.818 544.948 111.568 544.708 111.443ZM534.388 107.983C533.284 107.858 532.852 106.649 533.668 106.024C534.148 105.607 534.916 105.649 535.396 105.982C536.308 106.691 535.684 108.108 534.388 107.983ZM539.476 102.647L541.444 103.314L541.156 105.148L536.548 105.982C536.548 105.94 536.356 105.69 536.308 105.649L539.476 102.647ZM534.484 99.8129L536.164 100.98L534.724 104.898C534.724 104.898 534.34 104.898 534.292 104.898L532.852 100.98L534.484 99.8129ZM527.476 103.314L529.444 102.647L532.66 105.732C532.66 105.774 532.468 106.024 532.468 106.024L527.812 105.148L527.476 103.314ZM529.492 110.984L527.524 110.317L527.86 108.483L532.516 107.608C532.516 107.65 532.708 107.9 532.708 107.941L529.492 110.984ZM534.484 113.819L532.804 112.652L534.244 108.775C534.34 108.775 534.628 108.775 534.724 108.775L536.164 112.652L534.484 113.819ZM539.476 110.984L536.356 107.983C536.404 107.941 536.596 107.65 536.596 107.608L541.156 108.442L541.492 110.276L539.476 110.984Z" fill="white" fill-opacity="0.6"/>
    <path d="M253.708 109.706L251.932 108.831L253.036 108.664C253.276 108.622 253.468 108.414 253.42 108.164C253.372 107.955 253.132 107.788 252.844 107.83L250.588 108.164L248.476 107.08L250.636 106.746C250.78 106.705 250.876 106.663 250.972 106.538L251.308 106.038C251.452 105.829 251.356 105.579 251.116 105.454C250.876 105.329 250.588 105.412 250.444 105.621L250.252 105.954L247.18 106.413L246.172 105.913V104.12L247.18 103.62L250.252 104.079L250.492 104.412C250.636 104.62 250.924 104.662 251.164 104.579C251.404 104.454 251.452 104.204 251.356 103.995L251.02 103.495C250.972 103.37 250.828 103.328 250.684 103.287L248.524 102.953L250.636 101.869L252.892 102.203C253.18 102.244 253.42 102.078 253.468 101.869C253.516 101.661 253.324 101.411 253.084 101.369L251.932 101.327L253.708 100.452C253.948 100.327 253.996 100.077 253.9 99.8685C253.756 99.6601 253.468 99.6184 253.228 99.7018L251.452 100.577L251.836 99.6601C251.932 99.4516 251.788 99.2015 251.548 99.1182C251.308 99.0348 251.02 99.1599 250.924 99.3683L250.156 101.202L248.044 102.286L248.812 100.494C248.86 100.369 248.86 100.244 248.764 100.16L248.428 99.6601C248.284 99.4516 247.996 99.41 247.756 99.4933C247.516 99.6184 247.468 99.8685 247.564 100.077L247.756 100.41L246.7 102.953L245.692 103.453L243.964 102.578V101.578L245.98 99.4933H246.412C246.7 99.4933 246.892 99.3266 246.892 99.0765C246.892 98.8264 246.7 98.6596 246.412 98.6596H245.74C245.596 98.6596 245.452 98.7013 245.356 98.8264L243.964 100.285V98.1594L245.404 96.6588C245.596 96.4921 245.548 96.2003 245.356 96.0752C245.164 95.9085 244.876 95.9085 244.684 96.0752L243.964 96.8255V95.0748C243.964 94.8247 243.772 94.658 243.484 94.658C243.196 94.658 243.004 94.8247 243.004 95.0748V96.8255L242.284 96.0752C242.092 95.9085 241.804 95.8668 241.612 96.0335C241.42 96.2003 241.372 96.4504 241.564 96.6171L243.004 98.1178V100.244L241.612 98.8264C241.516 98.743 241.372 98.6596 241.228 98.6596H240.604C240.316 98.6596 240.124 98.8264 240.124 99.0765C240.124 99.3266 240.316 99.4933 240.604 99.4933H241.036L243.052 101.578V102.578L241.276 103.495L240.268 102.995L239.164 100.41L239.404 100.077C239.548 99.8685 239.452 99.6184 239.212 99.4933C238.972 99.3683 238.684 99.4516 238.54 99.6601L238.204 100.16C238.156 100.285 238.108 100.41 238.156 100.494L238.924 102.286L236.812 101.202L236.044 99.3266C235.948 99.1182 235.66 98.9931 235.42 99.0765C235.18 99.1599 235.036 99.41 235.132 99.6184L235.516 100.535L233.74 99.6601C233.5 99.535 233.212 99.6184 233.068 99.8268C232.924 100.035 233.02 100.285 233.26 100.41L235.036 101.327L233.932 101.494C233.692 101.536 233.5 101.744 233.548 101.994C233.596 102.203 233.836 102.37 234.124 102.328L236.332 101.994L238.444 103.078L236.284 103.37C236.14 103.412 236.044 103.453 235.948 103.578L235.612 104.079C235.516 104.245 235.564 104.495 235.804 104.62C236.044 104.746 236.332 104.662 236.476 104.454L236.668 104.12L239.74 103.662L240.748 104.162V105.954L239.74 106.455L236.668 105.996L236.428 105.663C236.284 105.454 235.996 105.412 235.756 105.496C235.516 105.621 235.468 105.871 235.564 106.079L235.9 106.58C235.948 106.705 236.092 106.746 236.236 106.788L238.396 107.122L236.284 108.205L234.028 107.872C233.788 107.83 233.5 107.997 233.452 108.205C233.404 108.414 233.596 108.664 233.836 108.706L235.036 108.831L233.26 109.706C233.02 109.831 232.972 110.081 233.068 110.29C233.212 110.498 233.5 110.54 233.74 110.456L235.516 109.581L235.132 110.498C235.036 110.706 235.18 110.956 235.42 111.04C235.66 111.123 235.948 110.998 236.044 110.79L236.812 108.956L238.924 107.872L238.156 109.664C238.108 109.789 238.108 109.914 238.204 109.998L238.54 110.498C238.684 110.706 238.972 110.748 239.212 110.665C239.452 110.54 239.5 110.29 239.404 110.081L239.164 109.748L240.22 107.205L241.228 106.705L243.004 107.58V108.58L240.988 110.665H240.556C240.268 110.665 240.076 110.831 240.076 111.082C240.076 111.332 240.268 111.498 240.556 111.498H241.228C241.372 111.498 241.516 111.457 241.612 111.332L243.004 109.873V111.999L241.564 113.499C241.372 113.666 241.42 113.958 241.612 114.083C241.804 114.25 242.14 114.208 242.284 114.041L243.004 113.291V115.083C243.004 115.333 243.196 115.5 243.484 115.5C243.772 115.5 243.964 115.333 243.964 115.083V113.332L244.684 114.083C244.876 114.25 245.164 114.291 245.356 114.124C245.548 113.958 245.596 113.708 245.404 113.541L243.964 112.04V109.914L245.356 111.373C245.452 111.457 245.596 111.54 245.74 111.54H246.364C246.652 111.54 246.844 111.373 246.844 111.123C246.844 110.873 246.652 110.706 246.364 110.706H245.932L243.916 108.622V107.58L245.692 106.663L246.7 107.163L247.756 109.706L247.612 110.081C247.468 110.29 247.564 110.54 247.804 110.665C248.044 110.79 248.332 110.706 248.476 110.498L248.812 109.998C248.86 109.873 248.908 109.748 248.86 109.664L248.092 107.872L250.204 108.956L250.972 110.79C251.068 110.998 251.356 111.123 251.596 111.04C251.836 110.956 251.98 110.706 251.884 110.498L251.5 109.581L253.276 110.456C253.516 110.581 253.804 110.498 253.948 110.29C253.996 110.081 253.948 109.831 253.708 109.706ZM245.26 105.996L243.484 106.871L241.708 105.954V104.162L243.484 103.245L245.26 104.162V105.996Z" fill="white" fill-opacity="0.6"/>
    <path d="M666.708 117.522L664.932 116.646L666.036 116.48C666.276 116.438 666.468 116.229 666.42 115.979C666.372 115.771 666.132 115.604 665.844 115.646L663.588 115.979L661.476 114.896L663.636 114.562C663.78 114.52 663.876 114.479 663.972 114.354L664.308 113.853C664.452 113.645 664.356 113.395 664.116 113.27C663.876 113.145 663.588 113.228 663.444 113.437L663.252 113.77L660.18 114.229L659.172 113.728V111.936L660.18 111.436L663.252 111.894L663.492 112.228C663.636 112.436 663.924 112.478 664.164 112.394C664.404 112.269 664.452 112.019 664.356 111.811L664.02 111.311C663.972 111.186 663.828 111.144 663.684 111.102L661.524 110.769L663.636 109.685L665.892 110.018C666.18 110.06 666.42 109.893 666.468 109.685C666.516 109.477 666.324 109.226 666.084 109.185L664.932 109.143L666.708 108.268C666.948 108.143 666.996 107.893 666.9 107.684C666.756 107.476 666.468 107.434 666.228 107.517L664.452 108.393L664.836 107.476C664.932 107.267 664.788 107.017 664.548 106.934C664.308 106.85 664.02 106.976 663.924 107.184L663.156 109.018L661.044 110.102L661.812 108.309C661.86 108.184 661.86 108.059 661.764 107.976L661.428 107.476C661.284 107.267 660.996 107.226 660.756 107.309C660.516 107.434 660.468 107.684 660.564 107.893L660.756 108.226L659.7 110.769L658.692 111.269L656.964 110.394V109.393L658.98 107.309H659.412C659.7 107.309 659.892 107.142 659.892 106.892C659.892 106.642 659.7 106.475 659.412 106.475H658.74C658.596 106.475 658.452 106.517 658.356 106.642L656.964 108.101V105.975L658.404 104.474C658.596 104.308 658.548 104.016 658.356 103.891C658.164 103.724 657.876 103.724 657.684 103.891L656.964 104.641V102.89C656.964 102.64 656.772 102.474 656.484 102.474C656.196 102.474 656.004 102.64 656.004 102.89V104.641L655.284 103.891C655.092 103.724 654.804 103.682 654.612 103.849C654.42 104.016 654.372 104.266 654.564 104.433L656.004 105.933V108.059L654.612 106.642C654.516 106.559 654.372 106.475 654.228 106.475H653.604C653.316 106.475 653.124 106.642 653.124 106.892C653.124 107.142 653.316 107.309 653.604 107.309H654.036L656.052 109.393V110.394L654.276 111.311L653.268 110.81L652.164 108.226L652.404 107.893C652.548 107.684 652.452 107.434 652.212 107.309C651.972 107.184 651.684 107.267 651.54 107.476L651.204 107.976C651.156 108.101 651.108 108.226 651.156 108.309L651.924 110.102L649.812 109.018L649.044 107.142C648.948 106.934 648.66 106.809 648.42 106.892C648.18 106.976 648.036 107.226 648.132 107.434L648.516 108.351L646.74 107.476C646.5 107.351 646.212 107.434 646.068 107.642C645.924 107.851 646.02 108.101 646.26 108.226L648.036 109.143L646.932 109.31C646.692 109.352 646.5 109.56 646.548 109.81C646.596 110.018 646.836 110.185 647.124 110.144L649.332 109.81L651.444 110.894L649.284 111.186C649.14 111.227 649.044 111.269 648.948 111.394L648.612 111.894C648.516 112.061 648.564 112.311 648.804 112.436C649.044 112.561 649.332 112.478 649.476 112.269L649.668 111.936L652.74 111.477L653.748 111.978V113.77L652.74 114.27L649.668 113.812L649.428 113.478C649.284 113.27 648.996 113.228 648.756 113.312C648.516 113.437 648.468 113.687 648.564 113.895L648.9 114.395C648.948 114.52 649.092 114.562 649.236 114.604L651.396 114.937L649.284 116.021L647.028 115.688C646.788 115.646 646.5 115.813 646.452 116.021C646.404 116.229 646.596 116.48 646.836 116.521L648.036 116.646L646.26 117.522C646.02 117.647 645.972 117.897 646.068 118.105C646.212 118.314 646.5 118.355 646.74 118.272L648.516 117.397L648.132 118.314C648.036 118.522 648.18 118.772 648.42 118.856C648.66 118.939 648.948 118.814 649.044 118.605L649.812 116.771L651.924 115.688L651.156 117.48C651.108 117.605 651.108 117.73 651.204 117.813L651.54 118.314C651.684 118.522 651.972 118.564 652.212 118.48C652.452 118.355 652.5 118.105 652.404 117.897L652.164 117.563L653.22 115.021L654.228 114.52L656.004 115.396V116.396L653.988 118.48H653.556C653.268 118.48 653.076 118.647 653.076 118.897C653.076 119.147 653.268 119.314 653.556 119.314H654.228C654.372 119.314 654.516 119.272 654.612 119.147L656.004 117.688V119.814L654.564 121.315C654.372 121.482 654.42 121.773 654.612 121.898C654.804 122.065 655.14 122.024 655.284 121.857L656.004 121.106V122.899C656.004 123.149 656.196 123.316 656.484 123.316C656.772 123.316 656.964 123.149 656.964 122.899V121.148L657.684 121.898C657.876 122.065 658.164 122.107 658.356 121.94C658.548 121.773 658.596 121.523 658.404 121.357L656.964 119.856V117.73L658.356 119.189C658.452 119.272 658.596 119.356 658.74 119.356H659.364C659.652 119.356 659.844 119.189 659.844 118.939C659.844 118.689 659.652 118.522 659.364 118.522H658.932L656.916 116.438V115.396L658.692 114.479L659.7 114.979L660.756 117.522L660.612 117.897C660.468 118.105 660.564 118.355 660.804 118.48C661.044 118.605 661.332 118.522 661.476 118.314L661.812 117.813C661.86 117.688 661.908 117.563 661.86 117.48L661.092 115.688L663.204 116.771L663.972 118.605C664.068 118.814 664.356 118.939 664.596 118.856C664.836 118.772 664.98 118.522 664.884 118.314L664.5 117.397L666.276 118.272C666.516 118.397 666.804 118.314 666.948 118.105C666.996 117.897 666.948 117.647 666.708 117.522ZM658.26 113.812L656.484 114.687L654.708 113.77V111.978L656.484 111.061L658.26 111.978V113.812Z" fill="white" fill-opacity="0.6"/>
</svg>