<svg xmlns="http://www.w3.org/2000/svg" viewBox="0 0 1024 1024" class="svg-icon icon-blog" height="32" width="32">
    <path fill="currentColor" d="m928 160h-704c-17.673 0-32 14.327-32 32v96h-96c-17.673 0-32 14.327-32 32v448c0 53.019 42.981 96 96 96h704c53.019 0 96-42.981 96-96v-576c0-17.673-14.327-32-32-32zm-800 192h64v416c0 17.673-14.327 32-32 32s-32-14.327-32-32zm768 416c0 17.673-14.327 32-32 32h-613.76c3.485-9.11 5.664-20.286 5.76-31.959v-544.041h640z"></path>
    <path fill="currentColor" d="m352 736h448c17.673 0 32-14.327 32-32s-14.327-32-32-32h-448c-17.673 0-32 14.327-32 32s14.327 32 32 32z"></path>
    <path fill="currentColor" d="m352 608h448c17.673 0 32-14.327 32-32s-14.327-32-32-32h-448c-17.673 0-32 14.327-32 32s14.327 32 32 32z"></path>
    <path fill="currentColor" d="m608 480h192c17.673 0 32-14.327 32-32s-14.327-32-32-32h-192c-17.673 0-32 14.327-32 32s14.327 32 32 32z"></path>
    <path fill="currentColor" d="m608 352h192c17.673 0 32-14.327 32-32s-14.327-32-32-32h-192c-17.673 0-32 14.327-32 32s14.327 32 32 32z"></path>
    <path fill="currentColor" d="m352 288h128c17.673 0 32 14.327 32 32v128c0 17.673-14.327 32-32 32h-128c-17.673 0-32-14.327-32-32v-128c0-17.673 14.327-32 32-32z"></path>
</svg>