<svg xmlns="http://www.w3.org/2000/svg" viewBox="0 0 1024 1024" class="svg-icon icon-career" height="32" width="32">
    <path fill="currentColor" d="M418.202 379.52c-28.952 28.954-46.859 68.952-46.859 113.133 0 88.366 71.634 160 160 160s160-71.634 160-160c0-44.181-17.907-84.179-46.859-113.133-28.827-29.234-68.869-47.343-113.141-47.343s-84.314 18.109-113.123 47.325zm181.03 181.002c-17.384 17.402-41.409 28.167-67.949 28.167-53.042 0-96.042-42.999-96.042-96.042s42.999-96.042 96.042-96.042c53.042 0 96.041 42.999 96.042 96.041-.002 26.499-10.735 50.5-28.091 67.886zm248.877-384.647c-54.938-54.938-145.187-69.843-254.438-41.92-25.785-3.472-125.6 38.65-207.881 102.336-24.663 3.069-169.47 28.298-239.118 97.959-16.2 14.444-26.352 35.373-26.352 58.674 0 4.991.466 9.872 1.356 14.604 10.839 55.589 84.535 95.551 115.354 110.005 3.404 61.543 37.808 129.801 90.486 178.616 36.316 44.082 102.524 81.748 177.555 90.56 15.77 30.817 55.908 104.769 112.071 115.611 4.267.884 9.243 1.4 14.339 1.405 22.621-.238 43.573-10.347 58.188-26.344 69.496-69.503 94.92-214.415 99.007-240.472 16.989-7.394 72.553-99.269 100.397-202.519 28.88-113.202 14.006-203.577-40.963-258.514zm-663.68 218.938a15.883 15.883 0 0 1-.071-1.522c0-5.771 2.991-10.843 7.507-13.751 6.017-11.478 53.461-42.087 107.357-57.327-13.21 11.004-43.55 63.932-57.179 123.242-16.475-1.66-42.016-22.592-57.302-50.02zM644.48 832.064c-2.986 4.537-8.055 7.491-13.815 7.491-.472 0-.939-.02-1.401-.059-15.327-4.922-39.258-27.629-52.426-56.303 23.053-.532 79.819-24.463 126.111-61.06.324 17.077-23.427 68.81-58.804 110.334zM828.016 414.4c-1.677 46.436-50.514 144.987-122.743 221.13-64.883 64.777-194.601 153.244-332.32 15.526-137.811-137.843-49.312-267.501 15.718-332.531 21.758-33.385 112.916-93.83 217.363-121.754 26.609-7.507 56.784-12.029 87.957-12.398 3.153-.208 6.589-.325 10.052-.325 37.917 0 72.553 14.046 98.989 37.219 37.607 37.638 46.766 108.076 24.983 193.132zm-506.72 317.875c18.235 12.855-.719 1.478-16.305-13.397 15.372 15.919-.718 1.551-12.965-15.732-8.013-16.156-25.426-29.46-46.172-32.822-21.515.212-40.936 10.244-53.834 25.862-43.69 43.682-61.754 150.716-63.658 162.777a31.055 31.055 0 0 0-.399 5.037c0 17.669 14.321 31.994 31.989 32h.082c1.738 0 3.441-.148 5.097-.432 11.886-1.895 118.978-19.911 162.542-63.508 15.412-12.455 25.6-31.776 26.031-53.49-1.913-18.25-14.421-36.244-32.084-46.122zm-38.874 54.538c-7.853 9.364-41.757 27.406-79.404 35.235-1.533-15.013 12.59-51.098 34.563-81.067.342-.168 1.062-.888 1.75-1.512.342.499.72.96 1.062 1.437-18.537-25.898-2.041 1.155 19.456 23.333-22.372-21.905-1.961 1.288 22.668 18.979l1.998 1.467c-.656.659-1.344 1.379-2.093 2.128z"/>
</svg>