<?xml version="1.0" standalone="no"?>
<!DOCTYPE svg PUBLIC "-//W3C//DTD SVG 20010904//EN"
 "http://www.w3.org/TR/2001/REC-SVG-20010904/DTD/svg10.dtd">
<svg version="1.0" xmlns="http://www.w3.org/2000/svg"
 width="1024.000000pt" height="1024.000000pt" viewBox="0 0 1024.000000 1024.000000"
 preserveAspectRatio="xMidYMid meet">
<metadata>
Created by potrace 1.13, written by Peter Selinger 2001-2015
</metadata>
<g transform="translate(0.000000,1024.000000) scale(0.100000,-0.100000)"
fill="#000000" stroke="none">
<path d="M7273 8488 c-6 -7 -75 -139 -153 -293 -182 -356 -307 -600 -431 -841
-92 -179 -98 -192 -81 -206 27 -24 99 -61 110 -57 5 2 39 42 74 89 125 165
520 682 638 834 52 68 106 138 120 156 29 39 114 146 137 174 14 18 14 20 -3
33 -11 8 -30 16 -44 20 -14 3 -63 16 -110 30 -47 13 -112 31 -145 39 -33 8
-68 19 -77 25 -22 12 -24 11 -35 -3z"/>
<path d="M5985 7974 c-183 -72 -202 -81 -209 -99 -3 -8 -3 -21 -1 -27 3 -7 9
-105 15 -218 5 -113 15 -302 21 -420 6 -123 15 -220 21 -228 8 -9 34 -12 87
-10 l76 3 11 105 c7 58 17 161 23 230 7 69 16 163 21 210 5 47 14 141 20 210
6 69 16 155 21 192 10 63 7 89 -9 88 -4 -1 -47 -17 -97 -36z"/>
<path d="M6350 7775 l-65 -23 2 -39 c1 -21 7 -56 12 -78 15 -64 29 -126 41
-185 18 -84 25 -105 35 -103 12 2 17 23 45 173 12 63 28 147 36 187 8 40 14
77 14 83 0 16 -49 10 -120 -15z"/>
<path d="M3865 7756 c-172 -62 -303 -163 -355 -274 l-21 -43 -62 50 c-167 136
-242 171 -366 171 -207 0 -404 -149 -473 -358 -31 -95 -21 -232 23 -321 l18
-36 -28 -25 c-131 -117 -146 -127 -196 -134 -67 -10 -180 -65 -231 -113 -96
-88 -154 -193 -175 -315 -16 -95 -2 -167 52 -275 l38 -76 -50 -55 c-133 -145
-189 -275 -189 -435 0 -150 58 -289 171 -412 l40 -44 -41 -52 c-89 -112 -123
-224 -101 -326 20 -86 42 -126 149 -269 296 -395 692 -836 1108 -1234 183
-176 389 -352 564 -482 52 -39 111 -83 130 -98 48 -36 241 -165 285 -190 19
-11 52 -30 73 -42 88 -50 179 -86 300 -119 17 -5 47 -13 65 -18 105 -31 201
-56 267 -69 30 -6 80 -16 110 -23 75 -15 214 -62 297 -100 189 -86 400 -203
477 -264 37 -29 40 -30 150 -29 70 0 135 6 176 17 253 66 436 139 655 262 231
130 418 277 583 459 170 189 328 476 349 635 3 25 9 51 13 56 7 9 17 51 40
160 5 22 14 97 21 167 19 192 -4 422 -63 643 -12 47 -46 151 -57 180 -5 11
-14 34 -21 50 -7 17 -17 40 -21 53 -5 12 -13 32 -18 45 -5 12 -14 38 -20 57
-6 19 -19 62 -29 95 -19 57 -35 116 -53 180 -4 17 -17 62 -28 100 -30 107 -92
372 -109 465 -6 30 -16 93 -22 140 -20 153 -32 224 -52 300 -27 105 -93 300
-133 395 -7 17 -29 71 -50 120 -73 174 -177 380 -208 414 -87 92 -228 105
-422 39 -124 -42 -243 -131 -307 -229 -29 -45 -37 -51 -102 -70 -77 -23 -168
-66 -231 -109 l-41 -28 -34 31 c-19 16 -71 64 -115 105 -323 303 -469 445
-833 809 -228 227 -418 413 -424 413 -5 0 -22 9 -37 19 -88 63 -312 82 -436
37z m285 -170 c85 -29 137 -63 184 -121 63 -76 544 -553 821 -815 50 -46 133
-125 185 -175 52 -50 158 -149 235 -221 487 -453 453 -419 596 -604 57 -74
106 -137 109 -140 3 -3 31 -39 62 -80 71 -96 82 -105 130 -105 31 0 45 7 64
28 44 51 34 79 -69 209 -50 64 -135 171 -187 237 -52 66 -98 131 -102 143 -10
35 -9 236 1 299 39 234 218 391 449 393 l87 1 40 -80 c48 -97 97 -204 121
-265 9 -25 20 -49 24 -55 4 -5 17 -37 29 -70 13 -33 27 -69 31 -80 5 -11 16
-40 24 -65 8 -25 21 -63 29 -85 8 -22 20 -60 27 -85 7 -25 16 -56 20 -70 13
-42 29 -131 40 -225 13 -103 23 -167 46 -280 16 -78 21 -102 42 -195 11 -46
67 -262 82 -315 12 -42 28 -99 39 -137 5 -18 15 -53 23 -78 8 -25 21 -65 28
-90 8 -25 26 -72 41 -105 30 -68 81 -218 97 -285 6 -25 13 -56 17 -70 33 -140
47 -466 26 -577 -6 -26 -15 -73 -21 -104 -38 -194 -305 -495 -595 -671 -308
-186 -721 -311 -1093 -332 l-83 -4 -82 72 c-243 213 -552 413 -727 470 -49 15
-184 68 -240 93 -61 27 -314 152 -335 165 -18 12 -114 86 -125 98 -3 3 -43 38
-90 79 -143 126 -352 340 -513 526 -116 135 -328 403 -387 490 -19 28 -55 77
-81 110 -147 188 -554 838 -670 1068 -50 101 -59 126 -59 173 0 31 7 69 16 86
21 40 93 118 109 118 7 0 53 -44 102 -97 152 -168 424 -465 493 -538 37 -38
113 -120 171 -180 57 -61 199 -203 314 -316 375 -369 458 -424 529 -352 22 22
26 34 24 67 -3 35 -9 45 -48 73 -234 172 -641 578 -1260 1258 -347 380 -386
434 -411 571 -12 65 1 146 32 210 44 88 184 234 224 234 7 0 50 -42 95 -92 90
-100 186 -204 520 -563 246 -264 841 -864 966 -975 187 -165 201 -175 251
-175 31 0 46 6 62 24 51 58 34 104 -66 178 -197 146 -786 741 -1489 1503 -294
318 -323 360 -332 464 -10 127 117 285 262 326 57 16 132 0 193 -41 95 -63
343 -272 423 -355 210 -221 270 -284 334 -354 39 -41 111 -118 160 -170 50
-52 125 -131 166 -175 41 -44 122 -130 180 -190 58 -61 134 -142 170 -180 464
-497 431 -465 476 -465 45 0 94 47 94 91 0 30 -30 65 -259 305 -58 60 -139
146 -180 190 -41 43 -110 117 -155 164 -45 47 -119 126 -166 175 -46 50 -127
135 -180 190 -52 55 -135 143 -185 195 -49 52 -130 138 -180 190 -237 249
-235 246 -235 292 0 59 37 116 107 164 146 101 254 123 383 80z m-1830 -1057
c-13 -46 -13 -189 1 -247 12 -49 71 -179 111 -245 l23 -39 -24 -19 c-23 -19
-23 -19 -54 3 -71 51 -158 142 -183 194 -51 104 -18 246 80 348 26 26 49 46
51 44 3 -2 0 -20 -5 -39z m3689 -256 c0 -10 -6 -51 -12 -91 l-12 -73 -55 56
c-61 63 -63 55 24 102 50 27 56 28 55 6z m-3746 -418 c32 -28 32 -31 11 -96
-21 -63 -14 -160 15 -239 32 -86 178 -344 363 -643 44 -71 78 -130 75 -133 -2
-3 -67 46 -143 108 -136 110 -178 145 -342 281 -94 79 -173 179 -202 255 -38
100 -21 225 45 338 32 55 122 154 139 154 6 0 23 -12 39 -25z m245 -1163 c169
-136 368 -297 443 -356 118 -93 148 -123 220 -219 333 -447 676 -818 1007
-1086 78 -63 132 -95 263 -159 229 -110 340 -158 444 -189 147 -44 492 -269
681 -444 39 -37 89 -73 110 -80 50 -17 282 -18 384 0 156 26 324 66 445 106
150 49 422 174 497 226 14 11 29 19 33 19 4 0 32 18 64 40 31 22 61 40 66 40
11 0 -100 -109 -180 -176 -152 -129 -419 -286 -625 -368 -150 -60 -339 -116
-443 -131 -45 -7 -51 -5 -125 43 -87 56 -129 80 -287 162 -215 111 -366 167
-550 205 -261 53 -514 132 -635 197 -86 47 -344 218 -440 291 -412 316 -875
760 -1276 1222 -216 248 -446 541 -483 612 -28 56 -28 139 0 196 18 37 66 97
76 97 2 0 142 -112 311 -248z"/>
<path d="M7330 7382 c-144 -208 -173 -252 -168 -257 2 -3 29 12 59 33 30 21
102 71 161 111 59 40 112 79 117 85 7 9 -5 24 -42 52 -29 22 -57 43 -63 47 -6
3 -34 -27 -64 -71z"/>
<path d="M8084 7372 c-11 -9 -34 -27 -50 -39 -16 -12 -67 -52 -114 -88 -47
-36 -157 -120 -245 -187 -88 -67 -183 -140 -211 -162 -29 -23 -111 -86 -183
-141 -72 -55 -131 -106 -131 -113 0 -21 39 -72 56 -72 8 0 22 4 32 10 22 12
151 70 157 70 2 0 29 11 60 25 30 14 80 36 110 50 31 14 58 25 60 25 2 0 34
14 70 30 36 17 68 30 70 30 2 0 28 11 57 24 29 13 76 34 103 46 28 12 74 33
103 46 29 13 55 24 57 24 2 0 34 14 70 30 36 17 68 30 70 30 2 0 34 14 70 30
36 17 70 30 75 30 23 0 7 32 -42 87 -29 32 -55 60 -58 63 -3 3 -18 21 -34 40
-44 54 -117 130 -124 130 -4 -1 -16 -8 -28 -18z"/>
</g>
</svg>
