<?xml version="1.0" encoding="utf-8"?>
<!-- Generator: Adobe Illustrator 24.0.2, SVG Export Plug-In . SVG Version: 6.00 Build 0)  -->
<svg version="1.1" id="Layer_1" xmlns="http://www.w3.org/2000/svg" xmlns:xlink="http://www.w3.org/1999/xlink" x="0px" y="0px"
	 viewBox="0 0 1024 1024" style="enable-background:new 0 0 1024 1024;" xml:space="preserve">
<style type="text/css">
	.st0{fill:#0093DD;}
	.st1{fill:#0093DD;stroke:#000000;stroke-miterlimit:10;}
</style>
<g transform="translate(0.000000,1024.000000) scale(0.100000,-0.100000)">
	<path class="st0" d="M7273,8488c-6-7-75-139-153-293c-182-356-307-600-431-841c-92-179-98-192-81-206c27-24,99-61,110-57
		c5,2,39,42,74,89c125,165,520,682,638,834c52,68,106,138,120,156c29,39,114,146,137,174c14,18,14,20-3,33c-11,8-30,16-44,20
		c-14,3-63,16-110,30c-47,13-112,31-145,39s-68,19-77,25C7286,8503,7284,8502,7273,8488z"/>
	<path class="st0" d="M5985,7974c-183-72-202-81-209-99c-3-8-3-21-1-27c3-7,9-105,15-218c5-113,15-302,21-420c6-123,15-220,21-228
		c8-9,34-12,87-10l76,3l11,105c7,58,17,161,23,230c7,69,16,163,21,210s14,141,20,210s16,155,21,192c10,63,7,89-9,88
		C6078,8009,6035,7993,5985,7974z"/>
	<path class="st0" d="M6350,7775l-65-23l2-39c1-21,7-56,12-78c15-64,29-126,41-185c18-84,25-105,35-103c12,2,17,23,45,173
		c12,63,28,147,36,187s14,77,14,83C6470,7806,6421,7800,6350,7775z"/>
	<path class="st1" d="M3865,7756c-172-62-303-163-355-274l-21-43l-62,50c-167,136-242,171-366,171c-207,0-404-149-473-358
		c-31-95-21-232,23-321l18-36l-28-25c-131-117-146-127-196-134c-67-10-180-65-231-113c-96-88-154-193-175-315c-16-95-2-167,52-275
		l38-76l-50-55c-133-145-189-275-189-435c0-150,58-289,171-412l40-44l-41-52c-89-112-123-224-101-326c20-86,42-126,149-269
		c296-395,692-836,1108-1234c183-176,389-352,564-482c52-39,111-83,130-98c48-36,241-165,285-190c19-11,52-30,73-42
		c88-50,179-86,300-119c17-5,47-13,65-18c105-31,201-56,267-69c30-6,80-16,110-23c75-15,214-62,297-100c189-86,400-203,477-264
		c37-29,40-30,150-29c70,0,135,6,176,17c253,66,436,139,655,262c231,130,418,277,583,459c170,189,328,476,349,635c3,25,9,51,13,56
		c7,9,17,51,40,160c5,22,14,97,21,167c19,192-4,422-63,643c-12,47-46,151-57,180c-5,11-14,34-21,50c-7,17-17,40-21,53
		c-5,12-13,32-18,45c-5,12-14,38-20,57s-19,62-29,95c-19,57-35,116-53,180c-4,17-17,62-28,100c-30,107-92,372-109,465
		c-6,30-16,93-22,140c-20,153-32,224-52,300c-27,105-93,300-133,395c-7,17-29,71-50,120c-73,174-177,380-208,414
		c-87,92-228,105-422,39c-124-42-243-131-307-229c-29-45-37-51-102-70c-77-23-168-66-231-109l-41-28l-34,31c-19,16-71,64-115,105
		c-323,303-469,445-833,809c-228,227-418,413-424,413c-5,0-22,9-37,19C4213,7782,3989,7801,3865,7756z M4150,7586
		c85-29,137-63,184-121c63-76,544-553,821-815c50-46,133-125,185-175s158-149,235-221c487-453,453-419,596-604
		c57-74,106-137,109-140s31-39,62-80c71-96,82-105,130-105c31,0,45,7,64,28c44,51,34,79-69,209c-50,64-135,171-187,237
		s-98,131-102,143c-10,35-9,236,1,299c39,234,218,391,449,393l87,1l40-80c48-97,97-204,121-265c9-25,20-49,24-55c4-5,17-37,29-70
		c13-33,27-69,31-80c5-11,16-40,24-65c8-25,21-63,29-85c8-22,20-60,27-85s16-56,20-70c13-42,29-131,40-225c13-103,23-167,46-280
		c16-78,21-102,42-195c11-46,67-262,82-315c12-42,28-99,39-137c5-18,15-53,23-78s21-65,28-90c8-25,26-72,41-105c30-68,81-218,97-285
		c6-25,13-56,17-70c33-140,47-466,26-577c-6-26-15-73-21-104c-38-194-305-495-595-671c-308-186-721-311-1093-332l-83-4l-82,72
		c-243,213-552,413-727,470c-49,15-184,68-240,93c-61,27-314,152-335,165c-18,12-114,86-125,98c-3,3-43,38-90,79
		c-143,126-352,340-513,526c-116,135-328,403-387,490c-19,28-55,77-81,110c-147,188-554,838-670,1068c-50,101-59,126-59,173
		c0,31,7,69,16,86c21,40,93,118,109,118c7,0,53-44,102-97c152-168,424-465,493-538c37-38,113-120,171-180c57-61,199-203,314-316
		c375-369,458-424,529-352c22,22,26,34,24,67c-3,35-9,45-48,73c-234,172-641,578-1260,1258c-268.3,293.9-352.5,392.8-388.4,485.9
		c-16.4,42.6-22.6,85.1-22.6,85.1c-12.3,90.2,12.7,165.8,32,210c50.1,98.1,138,245.2,224,234c52.6-6.9,78.8-73.9,95-92
		c90-100,186-204,520-563c246-264,841-864,966-975c187-165,201-175,251-175c31,0,46,6,62,24c51,58,34,104-66,178
		c-197,146-786,741-1489,1503c-294,318-323,360-332,464c-10,127,117,285,262,326c57,16,132,0,193-41c95-63,343-272,423-355
		c210-221,270-284,334-354c39-41,111-118,160-170c50-52,125-131,166-175c41-44,122-130,180-190c58-61,134-142,170-180
		c464-497,431-465,476-465c45,0,94,47,94,91c0,30-30,65-259,305c-58,60-139,146-180,190c-41,43-110,117-155,164s-119,126-166,175
		c-46,50-127,135-180,190c-52,55-135,143-185,195c-49,52-130,138-180,190c-237,249-235,246-235,292c0,59,37,116,107,164
		C3913,7607,4021,7629,4150,7586z M2320,6529c-13-46-13-189,1-247c12-49,71-179,111-245l23-39l-24-19c-23-19-23-19-54,3
		c-71,51-158,142-183,194c-51,104-18,246,80,348c26,26,49,46,51,44C2328,6566,2325,6548,2320,6529z M6009,6273c0-10-6-51-12-91
		l-12-73l-55,56c-61,63-63,55,24,102C6004,6294,6010,6295,6009,6273z M2263,5855c32-28,32-31,11-96c-21-63-14-160,15-239
		c32-86,178-344,363-643c44-71,78-130,75-133c-2-3-67,46-143,108c-136,110-178,145-342,281c-94,79-173,179-202,255
		c-38,100-21,225,45,338c32,55,122,154,139,154C2230,5880,2247,5868,2263,5855z M2508,4692c169-136,368-297,443-356
		c118-93,148-123,220-219c333-447,676-818,1007-1086c78-63,132-95,263-159c229-110,340-158,444-189c147-44,492-269,681-444
		c39-37,89-73,110-80c50-17,282-18,384,0c156,26,324,66,445,106c150,49,422,174,497,226c14,11,29,19,33,19s32,18,64,40
		c31,22,61,40,66,40c11,0-100-109-180-176c-152-129-419-286-625-368c-150-60-339-116-443-131c-45-7-51-5-125,43
		c-87,56-129,80-287,162c-215,111-366,167-550,205c-261,53-514,132-635,197c-86,47-344,218-440,291c-412,316-875,760-1276,1222
		c-216,248-446,541-483,612c-28,56-28,139,0,196c18,37,66,97,76,97C2199,4940,2339,4828,2508,4692z"/>
	<path class="st0" d="M7330,7382c-144-208-173-252-168-257c2-3,29,12,59,33s102,71,161,111s112,79,117,85c7,9-5,24-42,52
		c-29,22-57,43-63,47C7388,7456,7360,7426,7330,7382z"/>
	<path class="st0" d="M8084,7372c-11-9-34-27-50-39s-67-52-114-88s-157-120-245-187s-183-140-211-162c-29-23-111-86-183-141
		s-131-106-131-113c0-21,39-72,56-72c8,0,22,4,32,10c22,12,151,70,157,70c2,0,29,11,60,25c30,14,80,36,110,50c31,14,58,25,60,25
		s34,14,70,30c36,17,68,30,70,30s28,11,57,24s76,34,103,46c28,12,74,33,103,46s55,24,57,24s34,14,70,30c36,17,68,30,70,30
		s34,14,70,30c36,17,70,30,75,30c23,0,7,32-42,87c-29,32-55,60-58,63s-18,21-34,40c-44,54-117,130-124,130
		C8108,7389,8096,7382,8084,7372z"/>
</g>
</svg>
