<svg color="currentColor" xmlns="http://www.w3.org/2000/svg" viewBox="0 0 1024 1024" class="svg-icon icon-courses" height="32" width="32">
    <path fill="currentColor" d="M864 128c0-17.673-14.327-32-32-32h-544c-70.692 0-128 57.308-128 128v592c2.101 62.327 53.132 112.055 115.778 112.055 1.26 0 2.514-0.020 3.764-0.060l552.458 0.005c0.025 0 0.054 0 0.083 0 17.673 0 32-14.327 32-32 0-7.1-2.312-13.66-6.225-18.968-12.578-16.752-20.179-38.004-20.179-61.032s7.601-44.28 20.431-61.385c3.61-4.932 5.89-11.45 5.89-18.501 0-0.040 0-0.080 0-0.12v0.006-608zM800 704h-448v-544h448v544zM288 160v544h-8.64c-19.872 0.036-39.103 5.001-56.051 13.765l0.691-493.765c0-35.346 28.654-64 64-64zM780.48 864h-501.12c-1.666 0.204-3.595 0.32-5.552 0.32-26.686 0-48.32-21.634-48.32-48.32s21.634-48.32 48.32-48.32c1.956 0 3.885 0.116 5.781 0.342l500.891-0.022c-4.579 14.357-7.218 30.87-7.218 48s2.639 33.643 7.533 49.156z"/>
    <path fill="currentColor" d="M448 288h256c17.673 0 32-14.327 32-32s-14.327-32-32-32h-256c-17.673 0-32 14.327-32 32s14.327 32 32 32z"/>
    <path fill="currentColor" d="M672 320h-192c-17.673 0-32 14.327-32 32s14.327 32 32 32h192c17.673 0 32-14.327 32-32s-14.327-32-32-32z"/>
</svg>