<svg id="icon-views-mini" viewBox="0 0 32 32">
    <path fill="currentColor"
          d="M31.86 15.26c-0.2-0.46-4.68-11.26-15.86-11.26s-15.68 10.8-15.86 11.26c-0.087 0.216-0.138 0.467-0.138 0.73s0.051 0.514 0.143 0.743c0.175 0.447 4.535 11.267 15.855 11.267s15.66-10.8 15.86-11.24c0.092-0.222 0.146-0.48 0.146-0.75s-0.054-0.528-0.151-0.763zM16 24c-4.418 0-8-3.582-8-8s3.582-8 8-8c4.418 0 8 3.582 8 8s-3.582 8-8 8z"/>
    <path fill="currentColor" d="M22 16c0 3.314-2.686 6-6 6s-6-2.686-6-6c0-3.314 2.686-6 6-6s6 2.686 6 6z"/>
</svg>