<svg xmlns="http://www.w3.org/2000/svg" viewBox="0 0 32 32" class="svg-icon icon-facebook_dark">
    <path fill="currentColor" d="M20.379 29.333h3.623c2.945-0.001 5.332-2.388 5.332-5.333v0-16c0-2.946-2.388-5.333-5.333-5.333v0h-16c-2.946 0-5.333 2.388-5.333 5.333v0 16c0 2.946 2.388 5.333 5.333 5.333v0h7.939v-9.997h-2.16v-3.369h2.16v-2.756c0-0.504-0.109-3.877 4.551-3.877h3.288v3.509h-2.417c-0.479 0-0.961 0.463-0.961 0.807v2.304s3.485-0.005 3.376 0c-0.107 0.007-0.413 3.383-0.413 3.383h-2.981v9.997z"/>
</svg>