<svg xmlns="http://www.w3.org/2000/svg" viewBox="0 0 1024 1024" class="svg-icon icon-forum" height="32" width="32">
    <path fill="currentColor" d="M512 224c-113.28 0-215.36 40-273.6 106.88-4.833 5.648-7.774 13.041-7.774 21.12 0 17.99 14.584 32.574 32.574 32.574 9.911 0 18.788-4.426 24.763-11.41 44.197-53.165 130.597-85.165 224.037-85.165 17.673 0 32-14.327 32-32s-14.327-32-32-32z"/>
    <path fill="currentColor" d="M512 96c-247.040 0-448 157.76-448 352 1.881 102.611 55.313 195.955 136.256 252.759 18.944 55.081 31.104 126.761-2.816 177.641-3.306 4.956-5.275 11.048-5.275 17.6 0 17.615 14.233 31.906 31.826 32h4.169c82.309-5.009 180.225-53.622 251.71-127.864 11.010-0.136 22.21-0.136 32.13-0.136 247.040 0 448-157.76 448-352s-200.96-352-448-352zM512 736c-14.72 0-29.44 0-43.52-1.92-0.809-0.073-1.751-0.114-2.702-0.114-9.466 0-17.973 4.111-23.832 10.644-14.163 27.565-82.228 80.006-162.188 106.163 0.539-16.439 2.356-36.213 2.356-56.413 0-44.076-8.652-86.132-24.35-124.562 0.232-1.739-4.337-8.535-10.632-13.095-68.612-43.105-116.016-120.047-119.121-208.26-0.012-160.444 172.148-288.444 383.988-288.444s384 128 384 288-172.16 288-384 288z"/>
</svg>