<svg height="40" viewBox="0 0 40 40" width="40" xmlns="http://www.w3.org/2000/svg">
    <path clip-rule="evenodd"
          d="M5.069 11.113h12.035v7.912H2.283v-5.126a2.759 2.759 0 0 1 2.786-2.786zM27.914 1.75l-7.8 4.514-7.802-4.514c-1.532-.688-2.74-.817-4.123-.6s-2.619.823-3.343 2.05C3.73 5.094 4.4 7.49 6.295 8.604a3.706 3.706 0 0 0 1.894.502H31.814c.67 0 1.338-.223 1.895-.502 1.895-1.114 2.508-3.51 1.449-5.405-.613-1.226-1.95-1.95-3.343-1.95-1.416-.16-3.038 0-3.9.501zM7.898 4.203c.557-.947 1.616-1.153 2.675-.724l7.202 3.677h-9.53 1.27c-.335 0-.67-.111-.948-.278-.892-.502-1.226-1.728-.669-2.675zm23.63.276c-.557-.947-2.123-.991-3.07-.434l-5.949 3.111H29.92c.335 0 .669-.111.947-.278.892-.502 1.218-1.452.661-2.399zm-8.517 6.634h12.035a2.794 2.794 0 0 1 2.787 2.786v5.126H23.01zm12.816 9.862v14.989a2.794 2.794 0 0 1-2.786 2.786H23.01V20.975zM17.104 38.75H7.02a2.794 2.794 0 0 1-2.786-2.786V20.975h12.816V38.75z"
          fill-rule="evenodd"
          fill="currentColor"
    />
</svg>