<svg id="icon-group-mini" viewBox="0 0 32 32">
    <path fill="currentColor" d="M18 8c0 3.314-2.686 6-6 6s-6-2.686-6-6c0-3.314 2.686-6 6-6s6 2.686 6 6z"/>
    <path fill="currentColor" d="M28 12c0 2.209-1.791 4-4 4s-4-1.791-4-4c0-2.209 1.791-4 4-4s4 1.791 4 4z"/>
    <path fill="currentColor" d="M12 16c-5.523 0-10 4.477-10 10v2c0 1.105 0.895 2 2 2h16c1.105 0 2-0.895 2-2v-2c0-5.523-4.477-10-10-10z"/>
    <path fill="currentColor" d="M24 18c-0.94 0.006-1.826 0.227-2.615 0.616 1.636 1.999 2.607 4.578 2.615 7.382v2.002h4c1.105 0 2-0.895 2-2v-2c0-3.314-2.686-6-6-6z"/>
</svg>