<svg xmlns="http://www.w3.org/2000/svg" viewBox="0 0 32 32" class="svg-icon icon-instagram">
    <path fill="currentColor" d="M16 5.067c3.56 0 4 0 5.333 0.080 0.892 0.008 1.744 0.174 2.531 0.47 1.117 0.441 2.024 1.349 2.472 2.487 0.313 0.779 0.497 1.647 0.517 2.555 0 1.408 0.080 1.835 0.080 5.342s0 4-0.080 5.333c-0.008 0.892-0.174 1.744-0.47 2.531-0.441 1.117-1.349 2.024-2.487 2.472-0.766 0.29-1.618 0.455-2.506 0.464-1.404 0-1.83 0.080-5.337 0.080s-4 0-5.333-0.080c-0.055 0.001-0.12 0.002-0.184 0.002-0.86 0-1.686-0.147-2.454-0.418-1.116-0.442-2.024-1.349-2.471-2.488-0.296-0.783-0.462-1.653-0.464-2.563 0-1.401-0.080-1.827-0.080-5.334s0-4 0.080-5.333c0.002-0.91 0.168-1.78 0.47-2.584 0.441-1.117 1.349-2.024 2.487-2.472 0.783-0.296 1.653-0.462 2.563-0.464 1.334-0.067 1.774-0.080 5.334-0.080zM16 2.667c-3.627 0-4.080 0-5.493 0.080-1.169 0.021-2.28 0.245-3.307 0.636-1.734 0.685-3.132 2.083-3.823 3.838-0.385 1.007-0.608 2.117-0.629 3.277-0.080 1.422-0.080 1.876-0.080 5.502s0 4.080 0.080 5.493c0.021 1.169 0.245 2.28 0.636 3.307 0.685 1.726 2.078 3.119 3.825 3.81 1.007 0.385 2.117 0.608 3.277 0.629 1.436 0.093 1.889 0.093 5.516 0.093s4.080 0 5.493-0.080c1.169-0.021 2.28-0.245 3.307-0.636 1.726-0.685 3.119-2.078 3.81-3.825 0.385-1.007 0.608-2.117 0.629-3.277 0.093-1.436 0.093-1.889 0.093-5.516s0-4.080-0.080-5.493c-0.021-1.169-0.245-2.28-0.636-3.307-0.685-1.726-2.078-3.119-3.825-3.81-1.007-0.385-2.117-0.608-3.277-0.629-1.436-0.093-1.889-0.093-5.516-0.093v0z"/>
    <path fill="currentColor" d="M16 9.147c-3.785 0-6.853 3.068-6.853 6.853s3.068 6.853 6.853 6.853c3.785 0 6.853-3.068 6.853-6.853s-3.068-6.853-6.853-6.853c0 0 0 0 0 0zM16 20.44c-2.452 0-4.44-1.988-4.44-4.44s1.988-4.44 4.44-4.44c2.452 0 4.44 1.988 4.44 4.44s-1.988 4.44-4.44 4.44z"/>
    <path fill="currentColor" d="M24.72 8.88c0 0.884-0.716 1.6-1.6 1.6s-1.6-0.716-1.6-1.6c0-0.884 0.716-1.6 1.6-1.6s1.6 0.716 1.6 1.6z"/>
</svg>