<svg id="icon-like" viewBox="0 0 1024 1024">
    <path fill="currentColor" class="path1 fill-color4" d="M923.84 512c-4.818-32.625-29.599-64.048-63.299-79.080 65.892 25.613-23.045-15.895-118.502-41.463 87.4-143.457 65.96-221.857 51.24-250.337-12.364-26.833-39.028-45.124-69.963-45.124-0.266 0-0.532 0.001-0.797 0.004-39.857 3.264-74.819 31.066-88.684 69.024 21.576-33.403-11.81 34.851-58.485 91.793-55.030 72.463-223.35 161.423-298.87 191.183-12.121 4.738-20.55 16.325-20.55 29.881 0 0.745 0.025 1.485 0.076 2.218l-0.005 319.901c0 0.020 0 0.043 0 0.067 0 12.295 6.934 22.971 17.105 28.329 96.756 53.118 237.987 93.626 388.106 99.547l10.789 0.057c32.77-0.634 62.179-18.606 78.804-45.352-84.273 138.52 7.273 8.58 70.838-136.416-12.715 18.596 15.545-49.466 56.779-107.69 28.324-25.899 46.59-64.756 46.59-107.88 0-6.579-0.425-13.058-1.249-19.412zM832 597.44c9.626-21.87-35.28 41.267-62.923 112.981 57.411-128.233 4.234 16.247-73.38 144.264-2.878 3.575-12.618 9.256-23.689 9.315-114.955-0.845-242.947-32.265-357.332-87.434l5.323-275.446c85.12-37.76 244.16-123.84 306.56-205.44-27.555 41.412 26.295-24.228 62.63-99.874 4.785-17.32 17.143-30.263 33.035-35.078 5.757 0.503 10.557 4.425 12.462 9.728 12.833 25.065 10.913 99.305-78.367 219.305-3.928 5.253-6.289 11.876-6.289 19.051 0 14.673 9.876 27.040 23.343 30.815-61.23-20.037 56.788 8.105 165.769 53.577 6.112 1.778 18.016 14.635 21.908 30.629 0.231 2.363 0.325 4.732 0.325 7.124 0 26.308-11.298 49.978-29.307 66.421z"></path>
    <path fill="currentColor" class="path2 fill-color4" d="M144 416c-26.51 0-48 21.49-48 48v352c0 26.51 21.49 48 48 48s48-21.49 48-48v-352c0-26.51-21.49-48-48-48z"></path>
</svg>