<svg id="icon-like-mini" viewBox="0 0 32 32">
    <path fill="currentColor" d="M30 15.5c-0.316-0.992-1.044-1.772-1.977-2.152-1.834-0.719-3.289-1.391-4.702-2.132 3.299-4.916 2.859-7.436 2.519-8.076-0.304-0.633-0.913-1.077-1.632-1.139-0.123-0.020-0.257-0.031-0.393-0.031-1.095 0-2.021 0.721-2.33 1.713-0.93 1.647-1.956 3.056-3.122 4.336-2.603 2.501-7.523 3.861-10.223 5.741-0.084 0.044-0.14 0.131-0.14 0.231 0 0.003 0 0.007 0 0.010v12.34c0.006 0.079 0.053 0.145 0.119 0.179 3.95 2.017 8.586 3.28 13.496 3.479l0.385 0.002c0.848-0.048 1.578-0.512 1.994-1.189 0.864-1.41 1.727-3.065 2.48-4.779 0.775-2.034 1.447-3.49 2.206-4.893 0.787-0.679 1.336-1.899 1.336-3.248 0-0.138-0.006-0.274-0.017-0.409z"/>
    <path fill="currentColor" d="M4 12.5c-0.045-0.004-0.097-0.006-0.15-0.006-0.959 0-1.748 0.726-1.849 1.658l-0.001 11.668c0.101 0.94 0.891 1.666 1.85 1.666 0.053 0 0.105-0.002 0.157-0.007 0.038 0.004 0.091 0.007 0.143 0.007 0.959 0 1.748-0.726 1.849-1.658l0.001-11.668c-0.101-0.94-0.891-1.666-1.85-1.666-0.053 0-0.105 0.002-0.157 0.007z"/>
</svg>