<?xml version="1.0" standalone="no"?>
<!DOCTYPE svg PUBLIC "-//W3C//DTD SVG 20010904//EN"
 "http://www.w3.org/TR/2001/REC-SVG-20010904/DTD/svg10.dtd">
<svg version="1.0" xmlns="http://www.w3.org/2000/svg"
 width="1024.000000pt" height="1024.000000pt" viewBox="0 0 1024.000000 1024.000000"
 preserveAspectRatio="xMidYMid meet">
<metadata>
Created by potrace 1.13, written by Peter Selinger 2001-2015
</metadata>
<g transform="translate(0.000000,1024.000000) scale(0.100000,-0.100000)"
fill="#000000" stroke="none">
<path d="M1175 6460 c-275 -35 -550 -169 -759 -370 -268 -258 -416 -606 -416
-975 0 -370 148 -716 416 -975 187 -180 384 -285 669 -356 86 -21 405 -25 500
-6 353 72 649 259 857 542 240 325 320 764 212 1149 -76 268 -207 479 -415
665 -167 149 -409 267 -649 316 -74 15 -328 21 -415 10z m470 -414 c61 -21
130 -50 155 -64 25 -15 58 -33 73 -41 24 -12 123 -93 165 -133 34 -34 112
-127 112 -134 0 -4 6 -15 14 -23 52 -61 136 -278 156 -401 35 -224 -23 -464
-168 -692 -20 -31 -89 -113 -117 -139 -131 -120 -229 -179 -391 -235 -105 -37
-114 -39 -266 -42 -93 -2 -179 1 -210 7 -55 12 -209 64 -242 82 -10 6 -35 20
-55 31 -167 93 -312 242 -394 404 -152 300 -152 600 -1 898 107 210 312 388
539 469 155 55 169 57 350 54 168 -3 171 -3 280 -41z"/>
<path d="M5035 6464 c-122 -12 -318 -69 -435 -127 -206 -101 -363 -229 -494
-402 -46 -61 -136 -200 -136 -211 0 -2 -11 -27 -24 -56 -151 -334 -155 -756
-10 -1087 31 -70 39 -86 78 -151 201 -338 519 -562 918 -650 79 -17 296 -23
400 -11 399 46 765 271 983 606 215 331 273 726 165 1123 -45 165 -160 373
-280 507 -203 228 -423 357 -740 436 -74 19 -330 33 -425 23z m440 -417 c185
-63 335 -162 445 -292 101 -119 147 -204 202 -370 32 -97 33 -105 33 -265 0
-159 -1 -169 -33 -270 -50 -159 -83 -223 -180 -345 -110 -139 -248 -239 -416
-304 -138 -53 -209 -64 -384 -59 -151 5 -161 6 -262 43 -144 53 -227 98 -320
177 -68 57 -80 70 -141 144 -160 197 -240 470 -210 717 48 381 294 688 656
815 136 48 157 51 335 49 161 -3 167 -4 275 -40z"/>
<path d="M8699 6459 c-42 -5 -120 -23 -175 -40 -54 -17 -113 -34 -129 -38 -77
-20 -325 -172 -414 -255 -238 -220 -374 -467 -436 -792 -9 -47 -15 -136 -15
-220 0 -397 164 -758 466 -1022 166 -147 412 -266 649 -314 95 -19 414 -15
500 6 300 75 507 189 696 384 121 124 186 216 257 362 49 100 102 270 117 373
4 26 11 47 16 47 5 0 9 74 9 165 0 91 -4 165 -9 165 -5 0 -12 21 -15 48 -39
271 -189 557 -402 762 -185 179 -400 293 -664 355 -80 19 -348 27 -451 14z
m381 -383 c310 -77 549 -264 686 -536 40 -80 83 -226 95 -324 33 -274 -75
-577 -282 -785 -68 -69 -202 -171 -224 -171 -4 0 -19 -8 -33 -18 -15 -10 -79
-36 -142 -58 l-115 -39 -185 0 -185 0 -110 38 c-60 21 -130 51 -155 65 -25 15
-58 34 -74 42 -34 19 -141 106 -170 139 -111 125 -109 123 -173 241 -38 70
-89 226 -103 310 -35 223 18 446 163 685 12 20 95 119 119 143 134 130 281
212 473 262 88 24 331 27 415 6z"/>
</g>
</svg>
