<svg id="icon-messages" viewBox="0 0 1024 1024">
    <path fill="currentColor" d="M832 192h-640c-53.019 0-96 42.981-96 96v448c0 53.019 42.981 96 96 96h640c53.019 0 96-42.981 96-96v-448c0-53.019-42.981-96-96-96zM160 301.12l177.28 178.88-177.28 153.6v-332.48zM205.12 256h613.76l-274.88 276.16c-7.87 7.844-18.729 12.694-30.72 12.694s-22.85-4.85-30.721-12.695zM864 301.12v332.48l-177.28-153.6zM832 768h-640c-17.673 0-32-14.327-32-32v-17.6l224-194.88 52.16 52.48c19.454 19.441 46.323 31.464 76 31.464s56.546-12.023 76.001-31.464l51.839-52.159 224 194.88v17.28c0 17.673-14.327 32-32 32z"></path>
</svg>