<svg id="icon-notice" viewBox="0 0 1024 1024">
    <path fill="currentColor" d="M849.92 709.44s-81.92-57.28-81.92-135.040c0.302-7.419 0.473-16.128 0.473-24.876 0-70.551-11.175-138.492-31.853-202.149-28.007-88.895-113.878-155.566-215.322-155.566-3.27 0-6.525 0.069-9.761 0.207-2.382-0.144-5.718-0.217-9.071-0.217-101.387 0-187.197 66.691-215.955 158.598-19.842 60.726-31.036 128.772-31.036 199.432 0 9.204 0.19 18.363 0.566 27.475l31.957-1.304h-32c0 76.8-80.96 132.8-81.92 133.44-8.535 5.835-14.064 15.522-14.064 26.501 0 6.443 1.904 12.44 5.18 17.462 9.525 14.597 52.085 58.437 218.805 73.477-0.065 0.767-0.103 1.659-0.103 2.56s0.037 1.793 0.11 2.676c-0.008 70.577 57.3 127.884 127.992 127.884s128-57.308 128-128c0.065-0.767 0.103-1.659 0.103-2.56s-0.037-1.793-0.11-2.676c167.688-14.924 210.248-58.124 219.848-73.484 3.026-4.798 4.822-10.636 4.822-16.893 0-11.264-5.82-21.169-14.617-26.872zM576 832c0 35.346-28.654 64-64 64s-64-28.654-64-64 0 0 0 0c20.16 0 41.28 0 64 0s44.16 0 64 0c0 0 0 0 0 0zM512 768c-155.52 0-232-20.48-266.88-34.88 41.811-35.879 71.568-92.727 74.857-156.571l0.023-2.149c-0.315-7.264-0.495-15.785-0.495-24.348 0-62.796 9.657-123.337 27.568-180.218 18.882-64.627 81.424-114.106 155.522-114.106 3.309 0 6.594 0.099 9.854 0.293 2.335-0.191 5.59-0.288 8.867-0.288 74.213 0 136.834 49.633 156.479 117.516 17.059 53.971 26.724 114.722 26.724 177.73 0 8.799-0.189 17.555-0.562 26.262 1.7 57.676 30.225 115.207 74.723 155.38-35.32 15.217-111.8 35.377-266.68 35.377z"></path>
    <path fill="currentColor" d="M413.12 145.92c0.051 0 0.111 0 0.172 0 4.81 0 9.373-1.061 13.466-2.963 24.964-8.595 53.958-13.605 84.123-13.605s59.159 5.010 86.196 14.244c2.302 1.584 7.239 2.838 12.468 2.838 17.673 0 32-14.327 32-32 0-13.629-8.521-25.268-20.526-29.881-31.411-13.042-67.643-20.574-105.634-20.574-1.19 0-2.378 0.007-3.565 0.022-1.855-0.056-4.252-0.087-6.656-0.087-38.189 0-74.556 7.797-107.598 21.885-8.978 4.623-16.259 15.522-16.259 28.121 0 17.607 14.22 31.893 31.803 31.999z"></path>
</svg>