<?xml version="1.0" standalone="no"?>
<!DOCTYPE svg PUBLIC "-//W3C//DTD SVG 20010904//EN"
 "http://www.w3.org/TR/2001/REC-SVG-20010904/DTD/svg10.dtd">
<svg version="1.0" xmlns="http://www.w3.org/2000/svg"
 width="624.000000pt" height="416.000000pt" viewBox="0 0 624.000000 416.000000"
 preserveAspectRatio="xMidYMid meet">
<metadata>
Created by potrace 1.13, written by Peter Selinger 2001-2015
</metadata>
<g transform="translate(0.000000,416.000000) scale(0.100000,-0.100000)"
fill="#000000" stroke="none">
<path d="M2838 3348 c-44 -12 -112 -68 -135 -112 -10 -18 -19 -66 -23 -116
l-5 -85 -260 -5 c-280 -5 -282 -6 -343 -64 -66 -62 -62 3 -63 -1119 0 -944 2
-1021 17 -1038 22 -24 55 -24 99 1 78 44 105 59 215 120 63 35 130 72 148 82
17 10 49 27 70 39 20 11 60 34 87 49 108 61 182 102 222 122 l41 21 157 -87
c86 -48 171 -95 188 -105 18 -10 84 -46 147 -81 63 -35 131 -72 150 -83 19
-11 60 -33 90 -50 30 -16 59 -34 65 -38 17 -16 62 -9 81 12 17 20 19 39 19
248 1 124 2 232 3 239 2 9 49 12 196 12 l195 0 20 26 c21 27 21 31 21 920 0
877 0 894 -21 948 -24 65 -87 126 -147 144 -50 15 -1178 15 -1234 0z m1202
-133 c64 -33 60 25 60 -917 l0 -859 -147 3 -148 3 -5 720 c-5 719 -5 720 -27
755 -32 52 -62 76 -116 94 -41 14 -108 16 -448 16 -455 0 -421 -8 -401 89 9
43 19 62 44 84 l32 27 564 0 c480 0 567 -2 592 -15z m-410 -330 c20 -10 32
-27 39 -53 8 -32 9 -432 2 -1711 -1 -132 -2 -143 -18 -137 -10 4 -153 82 -318
173 -165 92 -316 175 -335 186 -19 10 -39 23 -44 28 -21 19 -79 8 -144 -27
-37 -20 -96 -53 -132 -72 -36 -19 -69 -38 -75 -42 -5 -4 -41 -24 -80 -45 -154
-83 -341 -188 -350 -196 -35 -33 -35 -34 -35 919 0 1009 -3 959 54 982 11 5
333 9 714 9 599 1 697 -1 722 -14z"/>
</g>
</svg>
