<?xml version="1.0" standalone="no"?>
<!DOCTYPE svg PUBLIC "-//W3C//DTD SVG 20010904//EN"
 "http://www.w3.org/TR/2001/REC-SVG-20010904/DTD/svg10.dtd">
<svg version="1.0" xmlns="http://www.w3.org/2000/svg"
 width="1024.000000pt" height="1024.000000pt" viewBox="0 0 1024.000000 1024.000000"
 preserveAspectRatio="xMidYMid meet">
<metadata>
Created by potrace 1.13, written by Peter Selinger 2001-2015
</metadata>
<g transform="translate(0.000000,1024.000000) scale(0.100000,-0.100000)"
fill="#000000" stroke="none">
<path d="M3060 8945 c-258 -59 -439 -242 -496 -500 -11 -49 -13 -659 -13
-3330 -1 -3475 -2 -3351 44 -3505 44 -145 160 -295 270 -350 72 -36 217 -41
311 -10 95 30 151 62 209 117 162 153 1718 1528 1730 1528 8 0 368 -315 801
-700 432 -385 809 -720 838 -745 28 -24 71 -64 96 -88 93 -91 272 -145 403
-123 100 16 153 46 232 126 101 103 152 212 180 388 13 80 15 509 15 3352 0
2708 -2 3272 -14 3330 -52 267 -244 460 -514 514 -83 17 -4019 13 -4092 -4z
m4071 -425 c69 -13 96 -40 109 -109 11 -59 15 -6634 4 -6690 -9 -42 -42 -65
-77 -52 -21 8 -322 273 -1136 1000 -96 86 -195 174 -220 196 -144 126 -411
365 -493 442 -36 35 -86 72 -110 83 -55 25 -131 25 -183 1 -22 -10 -121 -92
-220 -181 -248 -223 -286 -257 -655 -585 -179 -159 -487 -434 -685 -610 -198
-176 -371 -329 -385 -338 -13 -9 -37 -17 -51 -17 -21 0 -29 7 -38 31 -15 43
-16 6642 -1 6720 13 66 41 96 100 108 66 13 3974 14 4041 1z"/>
</g>
</svg>
