<svg height="24" viewBox="0 0 24 24" width="24" xmlns="http://www.w3.org/2000/svg">
    <path clip-rule="evenodd"
          d="M2.25 11.25h6a.75.75 0 0 1 0 1.5h-6a.75.75 0 0 1 0-1.5zm1.5 3h3a.75.75 0 0 1 0 1.5h-3a.75.75 0 0 1 0-1.5zm8.157-1.506l-2.162 5.633L21.005 12 9.745 5.623l2.162 5.633A.756.756 0 0 1 12 11.25h3.375a.75.75 0 0 1 0 1.5H12a.758.758 0 0 1-.093-.006zM3.75 8.25h3a.75.75 0 0 1 0 1.5h-3a.75.75 0 0 1 0-1.5zm6.73-3.931l11.26 6.377a1.5 1.5 0 0 1 0 2.608L10.48 19.68a1.493 1.493 0 0 1-2.036-.567 1.5 1.5 0 0 1-.094-1.274L10.592 12 8.35 6.16a1.498 1.498 0 0 1 .858-1.935c.417-.16.884-.126 1.272.094z"
          fill-rule="evenodd"
          fill="currentColor"
    />
</svg>