<svg id="icon-star" viewBox="0 0 32 32">
    <path fill="currentColor"
          d="M16 26.52l-8.82 4.62c-0.131 0.068-0.286 0.107-0.451 0.107-0.552 0-1-0.448-1-1 0-0.052 0.004-0.103 0.012-0.153l1.679-9.814-7.12-6.94c-0.185-0.182-0.299-0.434-0.299-0.713 0-0.495 0.36-0.907 0.833-0.986l9.866-1.441 4.4-8.94c0.169-0.326 0.504-0.544 0.89-0.544s0.721 0.219 0.887 0.538l4.403 8.946 9.86 1.44c0.47 0.087 0.822 0.495 0.822 0.984 0 0.271-0.108 0.516-0.282 0.696l-7.14 6.96 1.68 9.82c0.007 0.044 0.011 0.095 0.011 0.147 0 0.552-0.448 1-1 1-0.164 0-0.32-0.040-0.457-0.11z"/>
</svg>