<svg xmlns="http://www.w3.org/2000/svg" viewBox="0 0 32 32" class="svg-icon icon-telegram">
    <path fill="currentColor" d="M16 2.667c-7.364 0-13.333 5.97-13.333 13.333s5.97 13.333 13.333 13.333c7.364 0 13.333-5.97 13.333-13.333s-5.97-13.333-13.333-13.333zM22.173 10.667l-4.253 11.68c-0.1 0.249-0.34 0.422-0.62 0.422s-0.52-0.173-0.618-0.417l-2.015-5.018-5.040-2.013c-0.249-0.1-0.422-0.34-0.422-0.62s0.173-0.52 0.417-0.618l11.711-4.255c0.061-0.021 0.132-0.033 0.206-0.033 0.368 0 0.667 0.298 0.667 0.667 0 0.074-0.012 0.144-0.034 0.211z"/>
</svg>