<svg id="icon-voice-of-marketing" viewBox="0 0 32 32">
    <path fill="currentColor" d="M21 11.005v12.882c-1.992-1.441-5.702-3.578-11-4.467v-8.836c5.291-0.895 9.006-3.035 11-4.475v4.896zM8 19.151c-0.952-0.093-1.946-0.146-2.986-0.146h-1.015c-0.551 0-0.999-0.448-0.999-0.999v-6.002c0-0.551 0.448-0.999 0.999-0.999h1.001c1.045 0 2.043-0.055 3-0.149v8.295zM23 11.56v-7.56c0-0.404-0.243-0.769-0.617-0.924s-0.804-0.070-1.090 0.217c-0.058 0.057-5.828 5.707-16.293 5.712h-1.001c-1.653 0-2.999 1.345-2.999 2.999v0.001c-0.552 0-1 0.448-1 1v4c0 0.552 0.448 1 1 1v0.001c0 1.654 1.346 2.999 2.999 2.999h0.306l2.758 7.352c0.147 0.389 0.52 0.648 0.937 0.648h2c0.287 0 0.56-0.123 0.75-0.338 0.189-0.216 0.278-0.502 0.242-0.786l-0.798-6.387c7.151 1.369 11.051 5.166 11.097 5.211 0.191 0.193 0.448 0.295 0.709 0.295 0.129 0 0.258-0.024 0.382-0.075 0.374-0.155 0.618-0.52 0.618-0.925v-7.55c1.191-0.693 2-1.968 2-3.445s-0.809-2.752-2-3.445v0zM31 14.005h-3c-0.552 0-1 0.448-1 1s0.448 1 1 1h3c0.552 0 1-0.448 1-1s-0.448-1-1-1v0zM26.657 19.248c-0.391-0.391-1.024-0.391-1.414 0-0.391 0.39-0.391 1.023 0 1.414l2.121 2.121c0.39 0.391 1.024 0.391 1.414 0s0.391-1.024 0-1.414l-2.121-2.121zM26.657 10.762l2.121-2.121c0.391-0.391 0.391-1.024 0-1.414-0.39-0.391-1.024-0.391-1.414 0l-2.121 2.121c-0.391 0.391-0.391 1.024 0 1.414 0.39 0.391 1.023 0.391 1.414 0v0z"></path>
</svg>