<svg id="icon-link" viewBox="0 0 32 32">
    <path fill="currentColor" d="M29.52 14.5l-6 6c-1.528 1.569-3.661 2.543-6.021 2.543-3.11 0-5.825-1.69-7.277-4.202l2.778-2.84c0.133-0.116 0.284-0.216 0.448-0.295 0.214 0.7 0.574 1.306 1.053 1.796 0.769 0.763 1.829 1.235 2.999 1.235s2.23-0.472 3-1.236l6-6c0.768-0.768 1.243-1.828 1.243-3 0-2.343-1.899-4.243-4.243-4.243-1.172 0-2.232 0.475-3 1.243l-2.14 2.12c-1.13-0.445-2.438-0.703-3.807-0.703-0.569 0-1.129 0.045-1.674 0.131l4.62-4.568c1.494-1.332 3.475-2.146 5.646-2.146 4.694 0 8.5 3.806 8.5 8.5 0 2.171-0.814 4.152-2.154 5.655l0.007-0.008zM13.64 24.38l-2.14 2.14c-0.768 0.768-1.828 1.243-3 1.243-2.343 0-4.243-1.899-4.243-4.243 0-1.172 0.475-2.232 1.243-3l6-6c0.766-0.776 1.829-1.256 3.004-1.256 1.916 0 3.534 1.277 4.049 3.026 0.175-0.061 0.32-0.168 0.448-0.291l2.799-2.799c-0.377-0.654-0.808-1.219-1.301-1.721-1.536-1.531-3.657-2.478-5.999-2.478s-4.463 0.947-6 2.479l-6 6c-1.332 1.494-2.146 3.475-2.146 5.646 0 4.694 3.806 8.5 8.5 8.5 2.171 0 4.152-0.814 5.655-2.154l4.552-4.553c-0.486 0.079-1.045 0.123-1.616 0.123-1.368 0-2.675-0.258-3.877-0.728l0.072 0.025z"/>
</svg>