<svg id="icon-twitter" viewBox="0 0 32 32">
    <path fill="currentColor" d="M30.253 7.853c-0.901 0.412-1.945 0.712-3.041 0.848 1.057-0.669 1.891-1.702 2.297-2.93-0.971 0.565-2.114 1.027-3.332 1.283-1.054-1.126-2.5-1.841-4.112-1.841-2.946 0-5.333 2.388-5.333 5.333 0 0.518 0.074 1.018 0.211 1.492-4.506-0.282-8.455-2.433-11.094-5.689-0.492 0.75-0.77 1.69-0.77 2.694 0 1.859 0.952 3.497 2.394 4.451-0.881-0.017-1.717-0.266-2.446-0.681l0.026 0.094c-0.001 0.029-0.001 0.063-0.001 0.097 0 2.587 1.842 4.744 4.287 5.231-0.39 0.127-0.876 0.196-1.379 0.196-0.359 0-0.709-0.035-1.048-0.103 0.75 2.154 2.74 3.678 5.086 3.686-1.815 1.437-4.139 2.306-6.665 2.307-0.004 0-0.008 0-0.012 0-0.466 0-0.925-0.029-1.376-0.085 2.388 1.519 5.243 2.419 8.307 2.419 8.456 0 15.312-6.851 15.32-15.306q0-0.347 0-0.694c1.056-0.775 1.945-1.702 2.655-2.761z"/>
</svg>