<svg id="icon-ok" viewBox="0 0 32 32">
    <path fill="currentColor" d="M16 16.387c3.424 0 6.2-2.776 6.2-6.2s-2.776-6.2-6.2-6.2c-3.424 0-6.2 2.776-6.2 6.2 0 0.005 0 0.009 0 0.014 0.008 3.418 2.78 6.186 6.2 6.186 0 0 0 0 0 0zM16 7.627c1.414 0 2.56 1.146 2.56 2.56s-1.146 2.56-2.56 2.56c-1.414 0-2.56-1.146-2.56-2.56 0.008-1.411 1.149-2.552 2.559-2.56z"/>
    <path fill="currentColor" d="M18.507 21.44c1.361-0.299 2.565-0.797 3.65-1.469 0.438-0.302 0.754-0.853 0.754-1.477 0-1.001-0.812-1.813-1.813-1.813-0.341 0-0.659 0.094-0.932 0.257-1.175 0.745-2.615 1.189-4.158 1.189s-2.984-0.445-4.199-1.213c-0.243-0.158-0.58-0.264-0.941-0.264-1.003 0-1.816 0.813-1.816 1.816 0 0.642 0.333 1.206 0.836 1.529 1.041 0.665 2.244 1.18 3.529 1.482l-3.388 3.482c-0.221 0.297-0.353 0.671-0.353 1.075 0 1.001 0.812 1.813 1.813 1.813 0.421 0 0.809-0.144 1.117-0.385l3.396-3.464 3.4 3.4c0.334 0.374 0.817 0.609 1.355 0.609 1.001 0 1.813-0.812 1.813-1.813 0-0.538-0.235-1.022-0.607-1.354z"/>
</svg>