<svg id="icon-vk" viewBox="0 0 1024 1024">
    <path fill="currentColor" d="M841.813 469.333l29.013-39.68q76.8-106.667 67.84-136.533l-2.56-4.693c-2.12-2.938-7.406-6.373-13.487-7.651-4.463-1.010-9.396-1.572-14.46-1.572s-9.998 0.562-14.74 1.627l-145.9-0.084c0.517-0.788-2.488 1.602-4.653 4.634 0.45-1.253-2.478 3.068-4.238 7.946 30.297-74.445-1.563 22.425-49.464 109.201q-14.605 24.992-28.258 46.326c18.427-28.554 0.615 4.164-23.276 31.421 17.975-20.089 2.545-0.041-16.555 15.718-3.11 3.328-7.219 5.306-11.79 5.341h-7.686c-1.704-0.321-6.714-5.251-9.734-11.343-2.051-3.3-4.453-10.563-5.183-18.312-0.016-7.465-0.016-13.865-0.016-18.985s0-12.8 0-22.613 0-16.213 0-19.627c0-11.947 0-24.747 0-38.4s0-24.747 0-32.853 0-16.64 0-25.6c0.319-3.197 0.5-6.911 0.5-10.667s-0.182-7.469-0.537-11.132c0.966 2.188-1.242-6.762-4.849-14.958-0.202-2.119-3.81-7.186-8.685-10.55-4.483-2.249-11.215-4.021-18.329-4.317-17.447-3.803-37.372-5.979-57.806-5.979-0.413 0-0.826 0.001-1.239 0.003-7.358-0.704-15.984-1.105-24.703-1.105-29.072 0-57.102 4.459-83.444 12.732 2.586-2.226-7.488 4.509-15.021 13.455-5.622 6.918-6.049 10.758-2.209 11.185 14.353 0.608 28.509 8.278 37.892 19.949l2.641 6.078c0.2-1.254 4.297 9.401 6.318 20.774 1.462 5.615 3.366 19.772 3.91 34.278 0.722 9.163 1.126 19.355 1.126 29.641s-0.404 20.477-1.198 30.559c0.084 14.881-2.902 27.681-4.182 36.641 0.207 3.385-2.162 13.268-6.172 22.259 5.201-11.159 0.79 0.147-5.56 10.097l-1.921 1.777c-3.411 1.352-7.362 2.136-11.497 2.136-0.158 0-0.316-0.001-0.474-0.003-4.767-0.187-10.482-2.6-14.946-6.43 8.147 7.543-6.768-3.587-18.152-17.687 20.917 26.295-3.551-0.199-21.305-31.047q-12.56-21.208-25.36-49.368l-7.253-13.653q-5.547-12.8-17.92-37.973t-20.48-48.213c-0.414-4.061-4.256-10.647-9.769-15.323l-2.178-0.037-8.107-5.12c0.72-0.046-4.454-1.986-9.964-2.947l-121.876-0.040c-1.090-0.141-2.35-0.221-3.63-0.221-8.461 0-16.1 3.518-21.534 9.172l-3.423 3.423c-0.301 1.153-0.474 2.476-0.474 3.84s0.173 2.687 0.498 3.95c-0.005 4.001 0.936 8.665 2.627 12.951q26.363 65.446 57.936 127.74t54.613 97.707q23.040 37.547 46.933 70.4t31.573 42.667l12.373 14.080 11.093 11.093c-29.497-29.846-2.44 1.957 30.432 26.373-70.818-57.337-17.581-7.472 44.060 29.927-6.47-1.152 24.742 15.948 59.063 25.637 18.066 5.454 36.881 8.36 56.375 8.36 3.58 0 7.137-0.098 10.668-0.291l51.562 0.021c8.926-0.123 17.372-4.020 23.461-10.234l0.006-2.139c0.002 0.67 2.195-3.618 3.366-8.31 0.307-2.145 0.456-4.367 0.456-6.623s-0.148-4.478-0.436-6.656c-0.020-1.207-0.047-2.928-0.047-4.655 0-11.095 1.114-21.929 3.237-32.397-0.944 0.218 2.352-12.432 7.762-23.887-2.707 3.67 2.285-5.591 9.168-13.089-2.437 2.138 2.018-2.987 7.508-6.699l3.546-0.085c1.789-0.417 3.843-0.657 5.953-0.657 7.497 0 14.288 3.021 19.222 7.912-10.361-10.229 10.753 6.239 26.613 26.944q13.065 16.574 30.558 36.627c-18.241-19.589 3.546 8.224 30.689 29.521l9.417 5.893c-5.662-2.336 7.624 5.405 22.29 10.036 5.608 2.028 11.224 3.083 17.086 3.083 2.972 0 5.881-0.271 8.704-0.791l113.626 0.045c0.732 0.039 1.589 0.061 2.452 0.061 8.646 0 16.77-2.236 23.825-6.162 3.885-1.419 8.634-6.357 10.795-12.514 0.582-2.531 0.888-5.256 0.888-8.052s-0.306-5.521-0.885-8.143c0.37-0.096-0.9-6.542-3.077-12.555l-2.85-5.543c21.793 22.997-24.195-47.956-84.938-102.901l-0.396-0.352c74.967 67.084 13.727 20.1-35.212-37.64-6.199-7.271-9.589-15.791-9.589-25.104 0-4.904 0.94-9.589 2.65-13.883-16.049 26.308 7.977-24.866 41.867-67.91z"/>
</svg>