<svg xmlns="http://www.w3.org/2000/svg" viewBox="0 0 1024 1024" class="svg-icon icon-webinar" height="32" width="32">
    <path fill="currentColor" d="M832 192h-640c-70.692 0-128 57.308-128 128v384c0 70.692 57.308 128 128 128h640c70.692 0 128-57.308 128-128v-384c0-70.692-57.308-128-128-128zM896 704c0 35.346-28.654 64-64 64h-640c-35.346 0-64-28.654-64-64v-384c0-35.346 28.654-64 64-64h640c35.346 0 64 28.654 64 64v384z"/>
    <path fill="currentColor" d="M654.72 482.24l-218.56-125.44c-4.965-2.882-10.926-4.584-17.284-4.584-19.075 0-34.574 15.312-34.876 34.315v250.908c0.302 19.032 15.801 34.344 34.876 34.344 6.358 0 12.319-1.701 17.452-4.673l218.392-125.35c10.24-6.124 16.989-17.154 16.989-29.76s-6.749-23.636-16.832-29.673z"/>
</svg>