<svg xmlns="http://www.w3.org/2000/svg" viewBox="0 0 32 32" class="svg-icon icon-youtube">
    <path fill="currentColor" d="M29.067 10.733c-0.133-1.014-0.513-1.921-1.078-2.682-0.673-0.668-1.613-1.094-2.654-1.105-3.735-0.28-9.335-0.28-9.335-0.28v0s-5.6 0-9.333 0.267c-1.042 0.011-1.983 0.437-2.667 1.12-0.549 0.747-0.925 1.653-1.050 2.638-0.165 1.308-0.266 2.807-0.283 4.326l-0 2.036c0.013 1.524 0.11 3.009 0.285 4.47 0.114 0.824 0.494 1.73 1.059 2.492 0.771 0.677 1.802 1.105 2.933 1.118 2.123 0.2 9.056 0.2 9.056 0.2s5.6 0 9.333-0.28c0.009 0 0.019 0 0.030 0 1.023 0 1.952-0.401 2.638-1.055 0.552-0.744 0.933-1.651 1.062-2.636 0.16-1.304 0.257-2.794 0.27-4.305l0-2.018c-0.012-1.532-0.109-3.027-0.285-4.497zM13.333 20v-8l6.667 4z"/>
</svg>